<?xml version="1.0" encoding="UTF-8"?>
<svg version="1.1" xmlns="http://www.w3.org/2000/svg" width="679" height="578">
<path d="M0 0 C224.07 0 448.14 0 679 0 C679 190.74 679 381.48 679 578 C454.93 578 230.86 578 0 578 C0 387.26 0 196.52 0 0 Z " fill="#17171A" transform="translate(0,0)"/>
<path d="M0 0 C12.189375 -0.04125 24.37875 -0.0825 36.9375 -0.125 C40.77109131 -0.14320801 44.60468262 -0.16141602 48.55444336 -0.18017578 C53.27453613 -0.18920898 53.27453613 -0.18920898 55.49171448 -0.19088745 C57.02383082 -0.19393707 58.55594269 -0.20092599 60.08802795 -0.21115112 C74.73911575 -0.30395339 88.01110819 0.65269761 99.2734375 11.0625 C106.83171897 19.54419143 106.73193578 29.99567913 106.23095703 40.73632812 C105.74025386 45.54584162 103.79672024 49.15158831 101 53 C99.948125 54.5778125 99.948125 54.5778125 98.875 56.1875 C95.11234903 60.43722553 89.83280886 63.13924799 85 66 C85.56847656 66.44988281 86.13695312 66.89976562 86.72265625 67.36328125 C94.69816068 74.00731583 99.54845043 81.44243114 103.625 90.9375 C105.43191651 95.12382143 107.03290899 97.53397045 111 100 C113 102 113 102 113.4375 104.6875 C113.90377727 107.43335501 114.44015275 109.21204252 115.5625 111.6875 C117 115 117 115 117 118 C102.48 118 87.96 118 73 118 C66.9375 106.25 66.9375 106.25 65.07397461 102.62597656 C61.67812821 96.07121575 58.10728319 89.67228997 54.28735352 83.35449219 C53 81 53 81 53 79 C49.24391637 77.17561652 47.01050192 76.69929667 43 78 C38.9640939 82.0359061 39.84158367 89.02547662 39.68359375 94.46484375 C39.64548584 95.70613037 39.60737793 96.94741699 39.56811523 98.22631836 C39.52501221 99.7810083 39.48190918 101.33569824 39.4375 102.9375 C39.293125 107.908125 39.14875 112.87875 39 118 C26.13 118 13.26 118 0 118 C0 79.06 0 40.12 0 0 Z " fill="#FDFDFD" transform="translate(226,242)"/>
<path d="M0 0 C9.08450427 -0.06978018 18.16891502 -0.12295262 27.25362968 -0.15543652 C31.4728943 -0.17103406 35.69197437 -0.19216302 39.91113281 -0.22631836 C43.9895418 -0.25912437 48.06777424 -0.27689737 52.14630508 -0.28463173 C53.69549459 -0.29013739 55.2446754 -0.30088773 56.79378891 -0.31719017 C70.44940753 -0.45506825 82.16103553 1.26116415 92.8203125 10.59375 C99.68761889 17.9096744 101.34860024 25.80622418 101.4375 35.5625 C101.44765137 36.35366211 101.45780273 37.14482422 101.46826172 37.95996094 C101.31327477 48.49470767 97.33812343 56.82122721 90.51171875 64.72265625 C82.73092138 72.27176735 70.93638907 75.14582826 60.38671875 75.09765625 C58.70002075 75.09390991 58.70002075 75.09390991 56.97924805 75.09008789 C54.85483276 75.07643188 54.85483276 75.07643188 52.6875 75.0625 C48.170625 75.041875 43.65375 75.02125 39 75 C39 89.19 39 103.38 39 118 C29.6259375 118.0309375 29.6259375 118.0309375 20.0625 118.0625 C18.08773682 118.071604 16.11297363 118.08070801 14.07836914 118.09008789 C12.52229887 118.09300705 10.96622784 118.09555561 9.41015625 118.09765625 C8.18709778 118.1053302 8.18709778 118.1053302 6.93933105 118.11315918 C4.95919477 118.1134694 2.97915346 118.06238096 1 118 C0 117 0 117 -0.12304783 115.04971981 C-0.12212604 114.18784337 -0.12120424 113.32596693 -0.12025452 112.43797302 C-0.12162918 111.45214233 -0.12300385 110.46631165 -0.12442017 109.4506073 C-0.12082489 108.36016617 -0.11722961 107.26972504 -0.11352539 106.14624023 C-0.11367142 105.00492645 -0.11381744 103.86361267 -0.1139679 102.68771362 C-0.11326818 98.89465469 -0.10547307 95.10164416 -0.09765625 91.30859375 C-0.09579228 88.68685432 -0.09436828 86.06511454 -0.09336853 83.44337463 C-0.09025551 77.23498045 -0.08204252 71.02660379 -0.07201904 64.81821734 C-0.06085699 57.75182559 -0.05534722 50.68543301 -0.05032361 43.61903465 C-0.03985988 29.07934737 -0.022261 14.53967393 0 0 Z " fill="#FDFDFD" transform="translate(356,242)"/>
<path d="M0 0 C4.62 0 9.24 0 14 0 C14 0.66 14 1.32 14 2 C14.94101562 1.98839844 15.88203125 1.97679687 16.8515625 1.96484375 C18.09679687 1.95582031 19.34203125 1.94679687 20.625 1.9375 C22.46964844 1.92009766 22.46964844 1.92009766 24.3515625 1.90234375 C27.67963842 1.99142501 30.72687309 2.44745497 34 3 C35.010625 2.814375 36.02125 2.62875 37.0625 2.4375 C40.44896781 1.93313245 41.94342294 2.59562676 45 4 C45.99 4 46.98 4 48 4 C48 4.66 48 5.32 48 6 C49.32 5.67 50.64 5.34 52 5 C52.495 5.99 52.495 5.99 53 7 C57.383068 9.39982029 62.02087479 11.35753223 67 12 C67 13.32 67 14.64 67 16 C67.61875 16.2475 68.2375 16.495 68.875 16.75 C71.46047584 18.27086814 71.98905579 19.20046219 73 22 C73.2165625 23.5159375 73.2165625 23.5159375 73.4375 25.0625 C74.04304519 28.22479156 74.6555842 28.96137757 77 31 C77 31.66 77 32.32 77 33 C77.66 33 78.32 33 79 33 C79.495 32.01 79.495 32.01 80 31 C80.495 33.97 80.495 33.97 81 37 C81.66 37 82.32 37 83 37 C85.38931171 64.60508354 85.38931171 64.60508354 77.40869141 75.09082031 C75.63456073 77.07457166 73.81051734 78.98447782 71.9375 80.875 C71.31294922 81.5246875 70.68839844 82.174375 70.04492188 82.84375 C68.37566175 84.57536242 66.69393781 86.29256152 65 88 C64.48767822 88.55059082 63.97535645 89.10118164 63.44750977 89.66845703 C61.44919616 91.50667636 59.65089465 91.55818423 57 92 C55.88625 92.4640625 55.88625 92.4640625 54.75 92.9375 C48.80158346 95.23575185 42.60939446 96.05647552 36.3125 96.875 C31.12093857 97.66343807 27.79143717 98.3110341 24 102 C22.54182992 105.24774246 22 107.44902318 22 111 C22.99 111.495 22.99 111.495 24 112 C23.68817931 113.41681634 23.37551263 114.83344651 23.0625 116.25 C22.88847656 117.03890625 22.71445312 117.8278125 22.53515625 118.640625 C22.35855469 119.41921875 22.18195313 120.1978125 22 121 C21.92265625 121.64195312 21.8453125 122.28390625 21.765625 122.9453125 C20.56035624 126.17986029 18.11933381 128.27181541 15.6875 130.625 C14.95756836 131.35976563 14.95756836 131.35976563 14.21289062 132.109375 C9.96675021 136.29265196 6.77882545 137.96277492 1 139 C0.01 139.33 -0.98 139.66 -2 140 C-7.91245778 140.39416385 -11.81722251 139.96158714 -17 137 C-17.9375 134.8125 -17.9375 134.8125 -18 133 C-19.98 132.67 -21.96 132.34 -24 132 C-24 131.67 -24 131.34 -24 131 C-11.79 131 0.42 131 13 131 C13 116.81 13 102.62 13 88 C19.496875 87.87625 19.496875 87.87625 26.125 87.75 C39.86780196 87.33216321 53.24598286 86.64763677 64 77 C73.73086133 66.28319237 74.88462454 55.18633702 74.23095703 41.27880859 C73.47419267 33.81196028 69.31142114 27.16494845 64 22 C61.64050932 20.54443457 59.48803821 19.33848349 57 18.1875 C56.39671875 17.88908203 55.7934375 17.59066406 55.171875 17.28320312 C49.31877621 14.46480882 44.36719842 13.874903 37.91479492 13.79467773 C37.21042706 13.78464501 36.50605921 13.77461229 35.78034687 13.76427555 C33.51375362 13.73304223 31.24714278 13.70818242 28.98046875 13.68359375 C27.57571869 13.66517629 26.17097407 13.64633887 24.76623535 13.6270752 C19.57338794 13.55879848 14.38043639 13.49863639 9.1875 13.4375 C-2.424375 13.293125 -14.03625 13.14875 -26 13 C-25.67 51.94 -25.34 90.88 -25 131 C-25.66 131 -26.32 131 -27 131 C-27.03738281 130.18015625 -27.07476562 129.3603125 -27.11328125 128.515625 C-27.21189453 126.89914062 -27.21189453 126.89914062 -27.3125 125.25 C-27.37050781 124.18265625 -27.42851562 123.1153125 -27.48828125 122.015625 C-28.03977394 118.76560699 -28.966192 117.50565145 -31 115 C-31.125 111.875 -31.125 111.875 -31 109 C-31.33 108.34 -31.66 107.68 -32 107 C-32.03070592 103.91186183 -31.93259424 100.83673635 -31.83984375 97.75 C-31.70276776 94.85403265 -31.70276776 94.85403265 -34 93 C-35.06656853 87.32400053 -35.37197713 81.64035044 -34 76 C-33.34 76 -32.68 76 -32 76 C-32.08378906 75.07316406 -32.16757812 74.14632812 -32.25390625 73.19140625 C-32.35574219 71.99386719 -32.45757812 70.79632813 -32.5625 69.5625 C-32.66691406 68.36753906 -32.77132813 67.17257812 -32.87890625 65.94140625 C-32.93884766 64.48541016 -32.93884766 64.48541016 -33 63 C-32.505 62.505 -32.505 62.505 -32 62 C-32.09310507 59.36302419 -32.24384677 56.75494475 -32.4375 54.125 C-33.0502422 44.79478428 -33.39402332 35.64826967 -32.26171875 26.33984375 C-31.96864284 24.04092858 -31.96864284 24.04092858 -31.95703125 21.87890625 C-31.73193549 16.3801385 -29.55940127 13.51315502 -25.90625 9.6953125 C-22.32683368 6.51197913 -18.59549583 5.03769261 -14 4 C-13.278125 3.649375 -12.55625 3.29875 -11.8125 2.9375 C-7.86316538 1.62105513 -4.1257481 1.83820596 0 2 C0 1.34 0 0.68 0 0 Z " fill="#5F5F69" transform="translate(382,229)"/>
<path d="M0 0 C0.66 0.33 1.32 0.66 2 1 C1.34 1.66 0.68 2.32 0 3 C0.99157104 2.89389404 0.99157104 2.89389404 2.00317383 2.78564453 C10.47440347 1.97163969 18.87591613 1.84601307 27.37670898 1.86962891 C29.72190553 1.87507997 32.06691795 1.86960318 34.41210938 1.86328125 C35.90364626 1.86394056 37.39518302 1.86521867 38.88671875 1.8671875 C39.58762131 1.86516327 40.28852386 1.86313904 41.01066589 1.86105347 C45.88498976 1.88498976 45.88498976 1.88498976 47 3 C48.90899657 3.37477233 50.8278409 3.69995565 52.75 4 C63.53533115 5.70015072 63.53533115 5.70015072 67.8125 7.375 C68.48925781 7.63667969 69.16601562 7.89835938 69.86328125 8.16796875 C70.56839844 8.44253906 71.27351563 8.71710938 72 9 C73.49926398 9.56445884 74.99923727 10.12703817 76.5 10.6875 C77.655 11.120625 78.81 11.55375 80 12 C80 12.66 80 13.32 80 14 C80.99 14 81.98 14 83 14 C83 14.99 83 15.98 83 17 C83.598125 17.061875 84.19625 17.12375 84.8125 17.1875 C87 18 87 18 88.75 19.9375 C90.52950996 24.29729941 90.24370596 28.35153438 90 33 C90.66 33 91.32 33 92 33 C92.33 33.66 92.66 34.32 93 35 C93.66 35 94.32 35 95 35 C95.06058594 35.59167969 95.12117188 36.18335938 95.18359375 36.79296875 C95.68616596 41.7517926 95.68616596 41.7517926 96.6875 46.625 C97.30319645 51.30429303 95.55082793 55.17375811 93 59 C93.309375 60.175625 93.309375 60.175625 93.625 61.375 C94 64 94 64 92.0625 66.625 C91.381875 67.40875 90.70125 68.1925 90 69 C90 69.99 90 70.98 90 72 C89.34 72.66 88.68 73.32 88 74 C88.309375 74.8971875 88.309375 74.8971875 88.625 75.8125 C88.74875 76.534375 88.8725 77.25625 89 78 C87.71274093 79.70250393 86.37868281 81.37064759 85 83 C85 83.99 85 84.98 85 86 C85.66 85.34 86.32 84.68 87 84 C87.04898438 84.98742187 87.09796875 85.97484375 87.1484375 86.9921875 C87.26058594 88.91417969 87.26058594 88.91417969 87.375 90.875 C87.47941406 92.78925781 87.47941406 92.78925781 87.5859375 94.7421875 C87.67241106 98.08061699 87.67241106 98.08061699 90 100 C90.4140625 102.3828125 90.4140625 102.3828125 90.625 105.125 C90.73714844 106.49011719 90.73714844 106.49011719 90.8515625 107.8828125 C90.90054688 108.58148438 90.94953125 109.28015625 91 110 C87.66936188 107.77957459 87.47369016 107.17007713 86.25 103.5625 C82.32691309 93.30325763 76.58778372 85.79622793 68 79 C70.69679963 76.91333603 73.4540524 75.12756856 76.375 73.375 C82.61825944 69.25054031 86.79512747 63.14338791 89 56 C90.02751851 46.56488844 90.63172766 35.06050509 85 27 C77.89549441 18.73793749 69.62461808 15.30605819 59 14 C56.44162265 13.89027529 53.88110748 13.82490346 51.32055664 13.79467773 C50.20417014 13.77962865 50.20417014 13.77962865 49.06523037 13.76427555 C46.68023625 13.73314688 44.29522534 13.70822638 41.91015625 13.68359375 C40.42801402 13.6651666 38.94587684 13.64632869 37.46374512 13.6270752 C31.99672309 13.55891558 26.5296046 13.49867888 21.0625 13.4375 C8.831875 13.293125 -3.39875 13.14875 -16 13 C-16 51.94 -16 90.88 -16 131 C-16.33 131 -16.66 131 -17 131 C-17.33 128.03 -17.66 125.06 -18 122 C-18.66 122 -19.32 122 -20 122 C-20.495 122.99 -20.495 122.99 -21 124 C-21.66 123.34 -22.32 122.68 -23 122 C-23.99 122.495 -23.99 122.495 -25 123 C-26.39026669 109.40453971 -26.11152609 95.77275356 -26.0625 82.125 C-26.0574752 79.68359467 -26.05291403 77.24218833 -26.04882812 74.80078125 C-26.03789966 68.86716538 -26.0212392 62.93358746 -26 57 C-26.33 57 -26.66 57 -27 57 C-27.17967503 41.84740539 -27.17967503 41.84740539 -26.27734375 35.30859375 C-25.92271894 32.35671679 -25.79160029 29.40570516 -25.625 26.4375 C-24.6768306 14.64721964 -24.6768306 14.64721964 -20.234375 10.25390625 C-16.37483315 7.18247695 -12.77516054 5.32078909 -8 4 C-3.68077599 2.50563011 -3.68077599 2.50563011 0 0 Z " fill="#474751" transform="translate(242,229)"/>
<path d="M0 0 C0.495 0.99 0.495 0.99 1 2 C1.66 2 2.32 2 3 2 C3.33 1.34 3.66 0.68 4 0 C4.495 2.97 4.495 2.97 5 6 C5.66 6 6.32 6 7 6 C9.38931171 33.60508354 9.38931171 33.60508354 1.40869141 44.09082031 C-0.36543927 46.07457166 -2.18948266 47.98447782 -4.0625 49.875 C-4.68705078 50.5246875 -5.31160156 51.174375 -5.95507812 51.84375 C-7.62433825 53.57536242 -9.30606219 55.29256152 -11 57 C-11.51232178 57.55059082 -12.02464355 58.10118164 -12.55249023 58.66845703 C-14.55080384 60.50667636 -16.34910535 60.55818423 -19 61 C-19.7425 61.309375 -20.485 61.61875 -21.25 61.9375 C-27.19841654 64.23575185 -33.39060554 65.05647552 -39.6875 65.875 C-44.87906143 66.66343807 -48.20856283 67.3110341 -52 71 C-53.45817008 74.24774246 -54 76.44902318 -54 80 C-53.01 80.495 -53.01 80.495 -52 81 C-52.31182069 82.41681634 -52.62448737 83.83344651 -52.9375 85.25 C-53.11152344 86.03890625 -53.28554688 86.8278125 -53.46484375 87.640625 C-53.64144531 88.41921875 -53.81804687 89.1978125 -54 90 C-54.07734375 90.64195312 -54.1546875 91.28390625 -54.234375 91.9453125 C-55.43964376 95.17986029 -57.88066619 97.27181541 -60.3125 99.625 C-60.79912109 100.11484375 -61.28574219 100.6046875 -61.78710938 101.109375 C-66.03324979 105.29265196 -69.22117455 106.96277492 -75 108 C-76.485 108.495 -76.485 108.495 -78 109 C-83.91245778 109.39416385 -87.81722251 108.96158714 -93 106 C-93.9375 103.8125 -93.9375 103.8125 -94 102 C-95.98 101.67 -97.96 101.34 -100 101 C-100 100.67 -100 100.34 -100 100 C-87.79 99.67 -75.58 99.34 -63 99 C-62.71273405 92.82351048 -62.71273405 92.82351048 -62.43188477 86.64672852 C-61.62589919 69.94595766 -61.62589919 69.94595766 -58.9375 65.5625 C-58.57527344 64.92441406 -58.21304688 64.28632813 -57.83984375 63.62890625 C-52.66065405 59.043509 -43.33293153 59.39928038 -36.7109375 58.7890625 C-24.17117707 57.53939565 -14.29487745 53.99430828 -5.75 44.5 C-3.84698719 41.78141027 -2.39809627 39.00590698 -1 36 C-0.34 36 0.32 36 1 36 C1.02903892 31.91668161 1.04681189 27.8333898 1.0625 23.75 C1.07506836 22.01169922 1.07506836 22.01169922 1.08789062 20.23828125 C1.09272461 18.56572266 1.09272461 18.56572266 1.09765625 16.859375 C1.10551147 15.31975098 1.10551147 15.31975098 1.11352539 13.74902344 C1.01253819 11.30361289 0.62508262 9.34582258 0 7 C-0.03888349 4.66699067 -0.0448635 2.33290199 0 0 Z " fill="#4F4F5A" transform="translate(458,260)"/>
<path d="M0 0 C1.19088226 -0.0066568 2.38176453 -0.0133136 3.60873413 -0.02017212 C6.11820951 -0.03025017 8.62771143 -0.03499065 11.13720703 -0.03466797 C14.92917299 -0.03902599 18.71995926 -0.07535873 22.51171875 -0.11328125 C34.09960324 -0.16607561 44.93259834 -0.11035138 56.05224609 3.37646484 C59.84354171 4.48425605 63.41127478 4.92746421 67.3359375 5.3359375 C67.3359375 5.9959375 67.3359375 6.6559375 67.3359375 7.3359375 C68.3259375 7.6659375 69.3159375 7.9959375 70.3359375 8.3359375 C70.0059375 9.3259375 69.6759375 10.3159375 69.3359375 11.3359375 C69.9134375 11.5628125 70.4909375 11.7896875 71.0859375 12.0234375 C76.09619294 14.9460865 77.61208958 19.04947055 79.3359375 24.3359375 C80.71099849 26.21484184 80.71099849 26.21484184 82.3359375 27.3359375 C82.9959375 27.3359375 83.6559375 27.3359375 84.3359375 27.3359375 C84.39652344 27.92761719 84.45710938 28.51929688 84.51953125 29.12890625 C85.02210346 34.0877301 85.02210346 34.0877301 86.0234375 38.9609375 C86.63913395 43.64023053 84.88676543 47.50969561 82.3359375 51.3359375 C82.6453125 52.5115625 82.6453125 52.5115625 82.9609375 53.7109375 C83.3359375 56.3359375 83.3359375 56.3359375 81.3984375 58.9609375 C80.7178125 59.7446875 80.0371875 60.5284375 79.3359375 61.3359375 C79.3359375 62.3259375 79.3359375 63.3159375 79.3359375 64.3359375 C78.6759375 64.9959375 78.0159375 65.6559375 77.3359375 66.3359375 C77.6453125 67.233125 77.6453125 67.233125 77.9609375 68.1484375 C78.0846875 68.8703125 78.2084375 69.5921875 78.3359375 70.3359375 C77.04867843 72.03844143 75.71462031 73.70658509 74.3359375 75.3359375 C74.3359375 76.3259375 74.3359375 77.3159375 74.3359375 78.3359375 C74.9959375 77.6759375 75.6559375 77.0159375 76.3359375 76.3359375 C76.38492188 77.32335937 76.43390625 78.31078125 76.484375 79.328125 C76.59652344 81.25011719 76.59652344 81.25011719 76.7109375 83.2109375 C76.81535156 85.12519531 76.81535156 85.12519531 76.921875 87.078125 C77.00834856 90.41655449 77.00834856 90.41655449 79.3359375 92.3359375 C79.75 94.71875 79.75 94.71875 79.9609375 97.4609375 C80.07308594 98.82605469 80.07308594 98.82605469 80.1875 100.21875 C80.23648438 100.91742188 80.28546875 101.61609375 80.3359375 102.3359375 C77.00529938 100.11551209 76.80962766 99.50601463 75.5859375 95.8984375 C71.66285059 85.63919513 65.92372122 78.13216543 57.3359375 71.3359375 C60.03273713 69.24927353 62.7899899 67.46350606 65.7109375 65.7109375 C71.95419694 61.58647781 76.13106497 55.47932541 78.3359375 48.3359375 C79.36345601 38.90082594 79.96766516 27.39644259 74.3359375 19.3359375 C67.23054629 11.07284508 58.96108506 7.64402526 48.3359375 6.3359375 C45.80816846 6.22639827 43.27825123 6.16088826 40.74829102 6.13061523 C40.02550461 6.12071564 39.3027182 6.11081604 38.55802917 6.10061646 C36.19366616 6.06929113 33.82928313 6.04435999 31.46484375 6.01953125 C29.81574512 5.99893663 28.16665148 5.97793953 26.51756287 5.95655823 C22.19564876 5.90159641 17.87368909 5.85207392 13.55169678 5.80371094 C9.13403306 5.75330581 4.71643481 5.69771939 0.29882812 5.64257812 C-8.35541325 5.53531365 -17.00970972 5.43379945 -25.6640625 5.3359375 C-19.87600039 -1.40562888 -8.11846968 0.016088 0 0 Z " fill="#5E5E69" transform="translate(252.6640625,236.6640625)"/>
<path d="M0 0 C0.66 0 1.32 0 2 0 C2 38.94 2 77.88 2 118 C1.67 118 1.34 118 1 118 C0.67 115.03 0.34 112.06 0 109 C-0.66 109 -1.32 109 -2 109 C-2.495 109.99 -2.495 109.99 -3 111 C-5.43883668 100.11821357 -5.345248 89.28891893 -5.37109375 78.203125 C-5.38007723 76.19919779 -5.38919934 74.1952712 -5.39845276 72.19134521 C-5.4148534 68.01247536 -5.42262775 63.83368485 -5.42553711 59.65478516 C-5.43094295 54.31289837 -5.46875203 48.97175975 -5.51428127 43.63008499 C-5.54406697 39.50013511 -5.55126084 35.37036624 -5.55226326 31.2403183 C-5.55645461 29.27080572 -5.56884507 27.30129206 -5.58978081 25.33188629 C-5.61675582 22.57779326 -5.61185434 19.82544844 -5.59936523 17.07128906 C-5.61419952 16.2679866 -5.62903381 15.46468414 -5.64431763 14.63703918 C-5.5692865 8.80167594 -3.9151957 4.41879107 0 0 Z " fill="#52525B" transform="translate(224,242)"/>
<path d="M0 0 C0.9590625 0.433125 0.9590625 0.433125 1.9375 0.875 C2.57582764 1.12016357 3.21415527 1.36532715 3.87182617 1.61791992 C6.60796569 3.28301653 7.44153482 5.037298 8.92578125 7.86328125 C9.46436768 8.87438965 10.0029541 9.88549805 10.55786133 10.92724609 C11.11626709 12.00312988 11.67467285 13.07901367 12.25 14.1875 C12.82451904 15.27369629 13.39903809 16.35989258 13.9909668 17.47900391 C15.12961914 19.63209783 16.26424185 21.78732834 17.39453125 23.94482422 C19.82308949 28.55677927 22.34909083 33.11396641 24.86328125 37.6796875 C25.9375 39.875 25.9375 39.875 25.9375 41.875 C22.78947679 42.22478036 21.36708079 42.18184342 18.75 40.3125 C16.53033529 37.32743367 15.94295139 34.42759493 14.9375 30.875 C13.9475 30.545 12.9575 30.215 11.9375 29.875 C10.34558419 24.92237303 9.65371211 20.13034839 9.28125 14.953125 C8.88580735 12.56249441 8.248921 10.91301913 6.9375 8.875 C5.9475 8.545 4.9575 8.215 3.9375 7.875 C3.9375 7.215 3.9375 6.555 3.9375 5.875 C1.22818581 6.02981795 -0.52834039 6.35672081 -2.5078125 8.27734375 C-3.73929642 9.77271708 -4.9054837 11.3212924 -6.0625 12.875 C-5.77375 13.596875 -5.485 14.31875 -5.1875 15.0625 C-4.81625 15.990625 -4.445 16.91875 -4.0625 17.875 C-3.69125 18.638125 -3.32 19.40125 -2.9375 20.1875 C-1.74434816 23.85218067 -1.99935885 27.02338995 -2.0625 30.875 C-1.7325 31.535 -1.4025 32.195 -1.0625 32.875 C-2.24795353 37.3797234 -4.43886426 39.11916052 -8.0625 41.875 C-8.08737594 37.58830142 -8.10544275 33.30164205 -8.11743164 29.01489258 C-8.12243417 27.55915596 -8.1292383 26.10342429 -8.13793945 24.64770508 C-8.150185 22.54507212 -8.15576923 20.44250609 -8.16015625 18.33984375 C-8.16539307 17.077771 -8.17062988 15.81569824 -8.17602539 14.51538086 C-7.87147831 4.74957115 -7.87147831 4.74957115 -4.75 1.375 C-2.0625 -0.125 -2.0625 -0.125 0 0 Z M-4.0625 38.875 C-3.4025 39.205 -2.7425 39.535 -2.0625 39.875 C-7.27364766 45.46745115 -12.2016158 49.78321053 -20.0625 50.875 C-21.0525 51.205 -22.0425 51.535 -23.0625 51.875 C-24.62368428 51.94240865 -26.1875252 51.96014456 -27.75 51.9375 C-28.96236328 51.92396484 -28.96236328 51.92396484 -30.19921875 51.91015625 C-31.12154297 51.89275391 -31.12154297 51.89275391 -32.0625 51.875 C-32.0625 51.215 -32.0625 50.555 -32.0625 49.875 C-33.7125 50.205 -35.3625 50.535 -37.0625 50.875 C-37.3925 50.215 -37.7225 49.555 -38.0625 48.875 C-39.0525 48.545 -40.0425 48.215 -41.0625 47.875 C-41.0625 47.215 -41.0625 46.555 -41.0625 45.875 C-39.7425 45.875 -38.4225 45.875 -37.0625 45.875 C-37.0625 45.215 -37.0625 44.555 -37.0625 43.875 C-40.0325 43.875 -43.0025 43.875 -46.0625 43.875 C-46.3925 43.215 -46.7225 42.555 -47.0625 41.875 C-45.8664917 41.89071045 -44.6704834 41.9064209 -43.43823242 41.92260742 C-39.00470707 41.97687061 -34.57121112 42.0113369 -30.13745117 42.03979492 C-28.21780462 42.0548898 -26.2981926 42.07536773 -24.37866211 42.10131836 C-21.62084436 42.13767109 -18.8634822 42.15471912 -16.10546875 42.16796875 C-15.24600143 42.18345261 -14.38653412 42.19893646 -13.50102234 42.21488953 C-12.70041885 42.21511612 -11.89981537 42.21534271 -11.07495117 42.21557617 C-10.3710173 42.22223801 -9.66708344 42.22889984 -8.94181824 42.23576355 C-6.52350677 41.7715321 -5.62399465 40.72335389 -4.0625 38.875 Z " fill="#63636B" transform="translate(273.0625,318.125)"/>
<path d="M0 0 C2.825625 -0.04125 5.65125 -0.0825 8.5625 -0.125 C9.43849854 -0.14320801 10.31449707 -0.16141602 11.21704102 -0.18017578 C17.17953288 -0.22192332 22.39695026 0.19788864 27.4375 3.6875 C29.67164241 6.99403076 29.54890266 9.08906856 29 13 C27.16507139 16.17583799 25.82145016 17.63364337 22.46875 19.12890625 C17.95253095 20.26304685 13.75641738 20.21496908 9.125 20.125 C6.11375 20.08375 3.1025 20.0425 0 20 C0 13.4 0 6.8 0 0 Z " fill="#87878E" transform="translate(265,268)"/>
<path d="M0 0 C10.05517241 0.63529412 10.05517241 0.63529412 14 4 C16.18323877 7.58674941 17.39015722 10.85306912 18 15 C18.66 14.01 19.32 13.02 20 12 C22.98354088 22.24704219 26.98902044 41.02195911 22 51 C21.34 51 20.68 51 20 51 C19.71125 51.928125 19.4225 52.85625 19.125 53.8125 C18 57 18 57 16 60 C15.34 60 14.68 60 14 60 C13.73445313 60.59683594 13.46890625 61.19367188 13.1953125 61.80859375 C10.27112744 67.16959969 4.98464073 70.54717934 -0.71484375 72.4140625 C-7.45879361 74.14328041 -14.25117353 74.98685968 -21.1875 75.4375 C-26.39619375 75.84763337 -31.37755025 76.40939629 -36 79 C-41.13506436 85.73977197 -40.19768952 96.41107902 -40.5625 104.5625 C-40.60568359 105.47580078 -40.64886719 106.38910156 -40.69335938 107.33007812 C-40.79811757 109.55327991 -40.90029017 111.77656707 -41 114 C-41.33 114 -41.66 114 -42 114 C-42 100.14 -42 86.28 -42 72 C-35.503125 71.87625 -35.503125 71.87625 -28.875 71.75 C-15.13219804 71.33216321 -1.75401714 70.64763677 9 61 C18.73086133 50.28319237 19.88462454 39.18633702 19.23095703 25.27880859 C18.71966251 20.23396393 16.73597852 16.191125 14 12 C13.62746094 11.40058594 13.25492187 10.80117187 12.87109375 10.18359375 C9.61711402 5.65976827 4.87445193 3.40005694 0 1 C0 0.67 0 0.34 0 0 Z " fill="#65656D" transform="translate(437,245)"/>
<path d="M0 0 C15.71871768 -0.70172847 15.71871768 -0.70172847 21.6796875 3.7109375 C24.03979969 6.01518905 24.03565598 7.35655985 24.375 10.75 C24.29927436 14.53628223 23.38947244 17.00329815 20.671875 19.8125 C14.74547993 24.02190211 6.84422819 23 0 23 C0 15.41 0 7.82 0 0 Z " fill="#A4A4AA" transform="translate(395,268)"/>
<path d="M0 0 C1.19088226 -0.0066568 2.38176453 -0.0133136 3.60873413 -0.02017212 C6.11820951 -0.03025017 8.62771143 -0.03499065 11.13720703 -0.03466797 C14.92917299 -0.03902599 18.71995926 -0.07535873 22.51171875 -0.11328125 C34.09960324 -0.16607561 44.93259834 -0.11035138 56.05224609 3.37646484 C59.84354171 4.48425605 63.41127478 4.92746421 67.3359375 5.3359375 C67.3359375 5.9959375 67.3359375 6.6559375 67.3359375 7.3359375 C68.3259375 7.6659375 69.3159375 7.9959375 70.3359375 8.3359375 C66.8544423 9.4964359 65.16073614 9.12327329 61.5859375 8.4609375 C54.59867041 7.18889657 47.86525581 6.2157755 40.74829102 6.13061523 C40.02550461 6.12071564 39.3027182 6.11081604 38.55802917 6.10061646 C36.19366616 6.06929113 33.82928313 6.04435999 31.46484375 6.01953125 C29.81574512 5.99893663 28.16665148 5.97793953 26.51756287 5.95655823 C22.19564876 5.90159641 17.87368909 5.85207392 13.55169678 5.80371094 C9.13403306 5.75330581 4.71643481 5.69771939 0.29882812 5.64257812 C-8.35541325 5.53531365 -17.00970972 5.43379945 -25.6640625 5.3359375 C-19.87600039 -1.40562888 -8.11846968 0.016088 0 0 Z " fill="#717179" transform="translate(252.6640625,236.6640625)"/>
<path d="M0 0 C24.75 0 49.5 0 75 0 C75 0.33 75 0.66 75 1 C50.58 1 26.16 1 1 1 C1 39.28 1 77.56 1 117 C13.21 117 25.42 117 38 117 C38 101.82 38 86.64 38 71 C45.875 71 45.875 71 48.9375 74 C49.52402344 74.556875 50.11054688 75.11375 50.71484375 75.6875 C51.13894531 76.120625 51.56304687 76.55375 52 77 C51.67 77.66 51.34 78.32 51 79 C50.01 78.34 49.02 77.68 48 77 C44.67759676 77.3241369 43.39223697 77.60776303 41 80 C40.07752338 84.81407021 39.82568935 89.57269535 39.68359375 94.46484375 C39.64548584 95.70613037 39.60737793 96.94741699 39.56811523 98.22631836 C39.52501221 99.7810083 39.48190918 101.33569824 39.4375 102.9375 C39.293125 107.908125 39.14875 112.87875 39 118 C26.13 118 13.26 118 0 118 C0 79.06 0 40.12 0 0 Z " fill="#E7E7E8" transform="translate(226,242)"/>
<path d="M0 0 C0.33 0.66 0.66 1.32 1 2 C1.66 2 2.32 2 3 2 C3.33 1.34 3.66 0.68 4 0 C4.495 2.97 4.495 2.97 5 6 C5.66 6 6.32 6 7 6 C9.38931171 33.60508354 9.38931171 33.60508354 1.40869141 44.09082031 C-0.36543927 46.07457166 -2.18948266 47.98447782 -4.0625 49.875 C-4.99932617 50.84953125 -4.99932617 50.84953125 -5.95507812 51.84375 C-7.62433825 53.57536242 -9.30606219 55.29256152 -11 57 C-11.51232178 57.55059082 -12.02464355 58.10118164 -12.55249023 58.66845703 C-14.55080384 60.50667636 -16.34910535 60.55818423 -19 61 C-20.2375 61.495 -20.2375 61.495 -21.5 62 C-23.9980048 62.99920192 -26.35427976 63.54644796 -29 64 C-29 63.01 -29 62.02 -29 61 C-27.99839844 60.56429687 -26.99679687 60.12859375 -25.96484375 59.6796875 C-18.76024635 56.47493061 -12.76559095 53.49742393 -7 48 C-6.34 48 -5.68 48 -5 48 C-4.566875 46.14375 -4.566875 46.14375 -4.125 44.25 C-3.38665206 41.27551258 -2.55525067 38.666144 -1 36 C-0.34 36 0.32 36 1 36 C1.02903892 31.91668161 1.04681189 27.8333898 1.0625 23.75 C1.07087891 22.59113281 1.07925781 21.43226563 1.08789062 20.23828125 C1.09111328 19.12324219 1.09433594 18.00820313 1.09765625 16.859375 C1.10289307 15.83295898 1.10812988 14.80654297 1.11352539 13.74902344 C1.01253819 11.30361289 0.62508262 9.34582258 0 7 C-0.03888349 4.66699067 -0.0448635 2.33290199 0 0 Z " fill="#4A4A54" transform="translate(458,260)"/>
<path d="M0 0 C0.33 0 0.66 0 1 0 C1 36.3 1 72.6 1 110 C0.67 110 0.34 110 0 110 C-0.33 106.04 -0.66 102.08 -1 98 C-1.33 98 -1.66 98 -2 98 C-2.04628695 85.66536645 -2.08185067 73.33075346 -2.10362434 60.99605083 C-2.11407322 55.26890183 -2.12825256 49.54181213 -2.15087891 43.81469727 C-2.17256791 38.29043302 -2.18456031 32.76622591 -2.18975449 27.24192238 C-2.19345734 25.13154005 -2.20068782 23.02116093 -2.21146011 20.91080284 C-2.22592258 17.96089225 -2.22798014 15.01121948 -2.22705078 12.0612793 C-2.23424133 11.18374496 -2.24143188 10.30621063 -2.24884033 9.40208435 C-2.22810432 3.34215648 -2.22810432 3.34215648 0 0 Z " fill="#7F7F86" transform="translate(225,250)"/>
<path d="M0 0 C0.33 0 0.66 0 1 0 C1.33 35.64 1.66 71.28 2 108 C1.34 108 0.68 108 0 108 C-0.33 104.04 -0.66 100.08 -1 96 C-1.33 96 -1.66 96 -2 96 C-2.04633607 84.22144393 -2.08187573 72.44290954 -2.10362434 60.66428089 C-2.11406246 55.19501845 -2.12822229 49.72581836 -2.15087891 44.2565918 C-2.17260612 38.97870457 -2.18456842 33.70087733 -2.18975449 28.42294884 C-2.19345045 26.40911604 -2.20066767 24.39528653 -2.21146011 22.38147926 C-2.2259733 19.5612948 -2.227978 16.74135836 -2.22705078 13.92114258 C-2.23424133 13.08820175 -2.24143188 12.25526093 -2.24884033 11.39707947 C-2.23368815 7.1393161 -1.97159346 3.88480754 0 0 Z " fill="#7A7A83" transform="translate(355,252)"/>
<path d="M0 0 C0.9590625 0.433125 0.9590625 0.433125 1.9375 0.875 C2.57582764 1.12016357 3.21415527 1.36532715 3.87182617 1.61791992 C6.60796569 3.28301653 7.44153482 5.037298 8.92578125 7.86328125 C9.46436768 8.87438965 10.0029541 9.88549805 10.55786133 10.92724609 C11.11626709 12.00312988 11.67467285 13.07901367 12.25 14.1875 C12.82451904 15.27369629 13.39903809 16.35989258 13.9909668 17.47900391 C15.12961914 19.63209783 16.26424185 21.78732834 17.39453125 23.94482422 C19.82308949 28.55677927 22.34909083 33.11396641 24.86328125 37.6796875 C25.9375 39.875 25.9375 39.875 25.9375 41.875 C22.78947679 42.22478036 21.36708079 42.18184342 18.75 40.3125 C16.53033529 37.32743367 15.94295139 34.42759493 14.9375 30.875 C13.9475 30.545 12.9575 30.215 11.9375 29.875 C10.34558419 24.92237303 9.65371211 20.13034839 9.28125 14.953125 C8.88580735 12.56249441 8.248921 10.91301913 6.9375 8.875 C5.9475 8.545 4.9575 8.215 3.9375 7.875 C3.9375 7.215 3.9375 6.555 3.9375 5.875 C0.08054875 6.09539721 -1.07866402 6.89046124 -3.9375 9.625 C-6.49452839 13.53574931 -5.9424228 13.60707512 -5.0625 17.875 C-5.30075582 20.51772255 -5.5970786 23.07226483 -6 25.6875 C-6.09990234 26.38037109 -6.19980469 27.07324219 -6.30273438 27.78710938 C-6.54851588 29.48417213 -6.80448152 31.17975459 -7.0625 32.875 C-7.3925 32.875 -7.7225 32.875 -8.0625 32.875 C-8.09177632 29.35418442 -8.10939119 25.83340061 -8.125 22.3125 C-8.13337891 21.32185547 -8.14175781 20.33121094 -8.15039062 19.31054688 C-8.19759467 5.10212937 -8.19759467 5.10212937 -4.75 1.375 C-2.0625 -0.125 -2.0625 -0.125 0 0 Z " fill="#888890" transform="translate(273.0625,318.125)"/>
<path d="M0 0 C22.77 0 45.54 0 69 0 C69 1.32 69 2.64 69 4 C60.4465123 4.06947395 51.89314225 4.12279776 43.33944225 4.15543652 C39.36771373 4.17110056 35.39617807 4.19235199 31.42456055 4.22631836 C27.59256911 4.25888596 23.76076332 4.27684745 19.92864418 4.28463173 C18.46577341 4.29017996 17.00291293 4.30101425 15.54012108 4.31719017 C13.49291304 4.33893079 11.4464746 4.34196847 9.39916992 4.34057617 C7.65043831 4.35056892 7.65043831 4.35056892 5.86637878 4.36076355 C3 4 3 4 1.10005188 2.54121399 C0 1 0 1 0 0 Z " fill="#2E2E2E" transform="translate(610,0)"/>
<path d="M0 0 C12.87 0 25.74 0 39 0 C33 7 33 7 29 8 C28.29875 8.350625 27.5975 8.70125 26.875 9.0625 C21.24708332 10.89769022 15.34111444 10.84420762 9.875 8.5 C8.92625 8.005 7.9775 7.51 7 7 C7 6.34 7 5.68 7 5 C6.01 5 5.02 5 4 5 C4 4.01 4 3.02 4 2 C2.68 2 1.36 2 0 2 C0 1.34 0 0.68 0 0 Z " fill="#565661" transform="translate(300,360)"/>
<path d="M0 0 C0.67675781 0.26167969 1.35351562 0.52335938 2.05078125 0.79296875 C2.75589844 1.06753906 3.46101563 1.34210938 4.1875 1.625 C5.68676398 2.18945884 7.18673727 2.75203817 8.6875 3.3125 C9.8425 3.745625 10.9975 4.17875 12.1875 4.625 C12.1875 5.285 12.1875 5.945 12.1875 6.625 C13.1775 6.625 14.1675 6.625 15.1875 6.625 C15.1875 7.615 15.1875 8.605 15.1875 9.625 C15.785625 9.686875 16.38375 9.74875 17 9.8125 C19.1875 10.625 19.1875 10.625 20.9375 12.625 C22.6303059 16.68773416 22.44283894 20.28423807 22.1875 24.625 C21.89617187 24.02816406 21.60484375 23.43132812 21.3046875 22.81640625 C19.3580009 18.99790561 17.3975872 15.5325654 13.9375 12.9375 C13.36 12.504375 12.7825 12.07125 12.1875 11.625 C12.1875 10.635 12.1875 9.645 12.1875 8.625 C11.1975 8.13 11.1975 8.13 10.1875 7.625 C10.1875 6.965 10.1875 6.305 10.1875 5.625 C9.00220703 5.66592773 7.81691406 5.70685547 6.59570312 5.74902344 C2.61051087 5.74880531 -0.54714367 4.90505614 -4.34375 3.640625 C-16.84776019 0.07304458 -30.30019861 1.18456734 -43.18841553 1.3503418 C-46.76223197 1.39182974 -50.33616659 1.40964906 -53.91015625 1.4296875 C-60.87788788 1.47212812 -67.84515971 1.54007001 -74.8125 1.625 C-71.48165841 -1.39989646 -69.19308404 -1.76497108 -64.74633789 -1.82324219 C-63.52149185 -1.84626404 -62.29664581 -1.86928589 -61.03468323 -1.89300537 C-59.71483932 -1.90253235 -58.39499542 -1.91205933 -57.03515625 -1.921875 C-55.66277962 -1.94127548 -54.29041873 -1.96182084 -52.91807556 -1.98345947 C-50.04412726 -2.02577505 -47.17029239 -2.05844196 -44.29614258 -2.08349609 C-40.61959293 -2.11571711 -36.9435524 -2.16535151 -33.26729679 -2.22141647 C-30.43372289 -2.26381031 -27.60009917 -2.30022142 -24.76641655 -2.3345108 C-22.75401194 -2.35899353 -20.74163689 -2.38586822 -18.72926331 -2.41278076 C-17.50126511 -2.42319397 -16.27326691 -2.43360718 -15.00805664 -2.44433594 C-13.92980118 -2.45527283 -12.85154572 -2.46620972 -11.74061584 -2.47747803 C-7.56054487 -2.33118415 -3.88092543 -1.51968869 0 0 Z " fill="#54545E" transform="translate(309.8125,236.375)"/>
<path d="M0 0 C5.94 0 11.88 0 18 0 C18.33 0.66 18.66 1.32 19 2 C18.40832031 1.96519531 17.81664062 1.93039062 17.20703125 1.89453125 C12.2398924 1.72436825 9.09271311 1.83144791 5 5 C5.33 8.63 5.66 12.26 6 16 C10.78570443 18.25114568 10.78570443 18.25114568 15 17 C18.53191363 14.88085182 20.70120941 13.44818588 23 10 C23.07905064 7.66800612 23.08798769 5.33167378 23 3 C22.01 2.67 21.02 2.34 20 2 C20.99 1.67 21.98 1.34 23 1 C27.66666667 3.33333333 27.66666667 3.33333333 29 6 C29.37747367 10.00122092 29.40677401 12.29596807 27.375 15.8125 C22.08875749 20.68140757 15.89240916 20.25646248 9.125 20.125 C6.11375 20.08375 3.1025 20.0425 0 20 C0 13.4 0 6.8 0 0 Z " fill="#A1A1A6" transform="translate(265,268)"/>
<path d="M0 0 C1.36773056 -0.00287018 1.36773056 -0.00287018 2.76309204 -0.00579834 C4.67735065 -0.00714925 6.59161877 -0.00353001 8.50585938 0.00488281 C11.39995405 0.01557289 14.29342458 0.00496271 17.1875 -0.0078125 C28.72412434 -0.01637525 40.1218289 0.02003416 51.0390625 4.265625 C50.7090625 5.255625 50.3790625 6.245625 50.0390625 7.265625 C49.01941406 6.94416504 47.99976563 6.62270508 46.94921875 6.29150391 C40.55398231 4.70302212 34.02711667 4.90720153 27.4765625 4.8515625 C26.07550959 4.83282295 24.67446764 4.81324752 23.2734375 4.7928772 C19.61080423 4.74184392 15.94813448 4.70206543 12.28533936 4.66473389 C8.53779288 4.62451214 4.79039435 4.57350331 1.04296875 4.5234375 C-6.29156468 4.42701997 -13.62617051 4.34250754 -20.9609375 4.265625 C-20.6309375 3.605625 -20.3009375 2.945625 -19.9609375 2.265625 C-13.48976358 0.18051999 -6.73864236 -0.03204588 0 0 Z " fill="#787880" transform="translate(384.9609375,237.734375)"/>
<path d="M0 0 C6.86438771 -0.05121031 13.72872517 -0.08594504 20.59326172 -0.10986328 C22.92270753 -0.11984708 25.25214105 -0.13343883 27.58154297 -0.15087891 C60.41450509 -0.39032994 60.41450509 -0.39032994 67 4 C69.04705225 4.59739945 71.11233108 5.13409983 73.1875 5.625 C74.27417969 5.88539063 75.36085938 6.14578125 76.48046875 6.4140625 C77.31191406 6.60742188 78.14335937 6.80078125 79 7 C79 7.66 79 8.32 79 9 C79.763125 9.061875 80.52625 9.12375 81.3125 9.1875 C84 10 84 10 85.8125 12 C87.42037032 16.06198818 87.25373128 19.68656819 87 24 C86.67 24 86.34 24 86 24 C85.81824219 23.38511719 85.63648438 22.77023437 85.44921875 22.13671875 C85.19785156 21.32847656 84.94648438 20.52023437 84.6875 19.6875 C84.44386719 18.88699219 84.20023437 18.08648437 83.94921875 17.26171875 C82.89842992 14.75798735 82.18301373 13.60853643 80 12 C77.04964438 10.99061248 77.04964438 10.99061248 73.8125 10.3125 C72.18248047 9.93544922 72.18248047 9.93544922 70.51953125 9.55078125 C69.68808594 9.36902344 68.85664063 9.18726563 68 9 C68 8.01 68 7.02 68 6 C67.2575 6.04125 66.515 6.0825 65.75 6.125 C63 6 63 6 61.0861969 5.03059387 C54.96535619 2.00686158 46.74952941 2.84065151 40.06640625 2.83203125 C39.14842758 2.82870285 38.23044891 2.82537445 37.28465271 2.82194519 C35.35603329 2.81691503 33.42740527 2.81453564 31.4987793 2.81469727 C28.57390839 2.81250854 25.64941391 2.7943047 22.72460938 2.77539062 C20.83854294 2.77245618 18.95247474 2.77047173 17.06640625 2.76953125 C16.20568008 2.76234573 15.34495392 2.75516022 14.45814514 2.74775696 C8.42379656 2.7700957 2.87377084 3.66668911 -3 5 C-4.66586301 5.33732672 -6.33232917 5.67172742 -8 6 C-7.67 5.34 -7.34 4.68 -7 4 C-3.9375 3.375 -3.9375 3.375 -1 3 C-0.67 2.01 -0.34 1.02 0 0 Z " fill="#5F5F68" transform="translate(368,236)"/>
<path d="M0 0 C-4.625 3 -4.625 3 -8 3 C-8 3.66 -8 4.32 -8 5 C-9.19496094 5.10957031 -10.38992188 5.21914063 -11.62109375 5.33203125 C-23.66026386 6.26620704 -23.66026386 6.26620704 -35 10 C-40.13506436 16.73977197 -39.19768952 27.41107902 -39.5625 35.5625 C-39.60568359 36.47580078 -39.64886719 37.38910156 -39.69335938 38.33007812 C-39.79811757 40.55327991 -39.90029017 42.77656707 -40 45 C-40.33 45 -40.66 45 -41 45 C-41 31.14 -41 17.28 -41 3 C-27.6875 2.6875 -27.6875 2.6875 -23.5612793 2.61206055 C-16.69340707 2.40708665 -10.62740745 1.6806366 -4.08520508 -0.46557617 C-2 -1 -2 -1 0 0 Z " fill="#7F7F87" transform="translate(436,314)"/>
<path d="M0 0 C0.36552803 1.41377782 0.71695495 2.83120576 1.0625 4.25 C1.25972656 5.03890625 1.45695312 5.8278125 1.66015625 6.640625 C2.18144906 10.2597153 1.50550403 12.2720742 -0.5625 15.25 C-4.16179223 17.83410724 -6.62936729 17.35824858 -11 17 C-13.27678479 14.72321521 -13.49055929 10.8661372 -14.02734375 7.81640625 C-14 5 -14 5 -12.81640625 2.90234375 C-8.64122865 -1.0310641 -5.63795014 -1.6108429 0 0 Z " fill="#8B8B92" transform="translate(412,272)"/>
<path d="M0 0 C0.33 0 0.66 0 1 0 C1.25 7.625 1.25 7.625 -1 11 C-1.29362622 12.94097761 -1.29362622 12.94097761 -1.24050903 15.08122253 C-1.24325836 15.90993362 -1.24600769 16.73864471 -1.24884033 17.59246826 C-1.24164978 18.49805481 -1.23445923 19.40364136 -1.22705078 20.33666992 C-1.22734283 21.29295792 -1.22763489 22.24924591 -1.22793579 23.23451233 C-1.22654085 26.39992298 -1.2109718 29.56509915 -1.1953125 32.73046875 C-1.19158296 34.92336397 -1.18873571 37.11626085 -1.18673706 39.30915833 C-1.17909599 45.08450918 -1.15944337 50.85975965 -1.1373291 56.6350708 C-1.11688091 62.52688234 -1.10773754 68.41871009 -1.09765625 74.31054688 C-1.07619798 85.87374205 -1.04205627 97.43686268 -1 109 C-1.66 109 -2.32 109 -3 109 C-4.64313867 105.71372266 -4.14721126 102.06671353 -4.14526367 98.45458984 C-4.14862228 97.56981964 -4.1519809 96.68504944 -4.15544128 95.77346802 C-4.16497231 92.83594371 -4.16689585 89.89847633 -4.16796875 86.9609375 C-4.17118118 84.92029802 -4.17454524 82.87965877 -4.17805481 80.83901978 C-4.1840524 76.55331896 -4.1858942 72.26763832 -4.18530273 67.98193359 C-4.18520138 62.50102139 -4.19882285 57.02023952 -4.21607494 51.53935814 C-4.22722034 47.32019461 -4.22922112 43.10106226 -4.22869301 38.88188553 C-4.22987048 36.86216408 -4.23427913 34.84244177 -4.24202538 32.82273483 C-4.25187106 29.98899116 -4.24892856 27.15552593 -4.24291992 24.32177734 C-4.24853943 23.4934137 -4.25415894 22.66505005 -4.25994873 21.81158447 C-4.23173545 16.55023172 -3.45533758 12.06048101 -2 7 C-1.79117188 6.236875 -1.58234375 5.47375 -1.3671875 4.6875 C-0.68359375 2.34375 -0.68359375 2.34375 0 0 Z " fill="#67676F" transform="translate(225,242)"/>
<path d="M0 0 C4.62 0 9.24 0 14 0 C14 0.66 14 1.32 14 2 C14.94101562 1.98839844 15.88203125 1.97679687 16.8515625 1.96484375 C18.09679687 1.95582031 19.34203125 1.94679687 20.625 1.9375 C22.46964844 1.92009766 22.46964844 1.92009766 24.3515625 1.90234375 C27.67963842 1.99142501 30.72687309 2.44745497 34 3 C35.010625 2.814375 36.02125 2.62875 37.0625 2.4375 C40.44896781 1.93313245 41.94342294 2.59562676 45 4 C45.99 4 46.98 4 48 4 C48 4.66 48 5.32 48 6 C49.32 5.67 50.64 5.34 52 5 C52.495 6.485 52.495 6.485 53 8 C51.4372038 7.85737588 49.87477304 7.71074489 48.3125 7.5625 C47.44238281 7.48128906 46.57226562 7.40007812 45.67578125 7.31640625 C43 7 43 7 40.65510559 6.49305725 C37.99936399 5.99988189 35.54094871 5.84249783 32.8425293 5.79467773 C31.34153938 5.7647599 31.34153938 5.7647599 29.81022644 5.73423767 C28.7423439 5.71752518 27.67446136 5.70081268 26.57421875 5.68359375 C25.47149124 5.66281265 24.36876373 5.64203156 23.23262024 5.62062073 C19.71764222 5.55535068 16.20259088 5.49634505 12.6875 5.4375 C10.30142477 5.39429335 7.91535691 5.35067837 5.52929688 5.30664062 C-0.31372506 5.1996924 -6.15681958 5.09788445 -12 5 C-11.67 4.01 -11.34 3.02 -11 2 C-7.37 2 -3.74 2 0 2 C0 1.34 0 0.68 0 0 Z " fill="#393944" transform="translate(382,229)"/>
<path d="M0 0 C0 0.33 0 0.66 0 1 C-1.32064453 1.22042969 -1.32064453 1.22042969 -2.66796875 1.4453125 C-10.18239189 2.60635189 -10.18239189 2.60635189 -16.1875 6.8125 C-18.86943615 11.5290084 -19.98911831 15.38121129 -20.375 20.75 C-20.82308333 26.31299677 -22.69435194 30.95974611 -25 36 C-25.33 36 -25.66 36 -26 36 C-26.28491739 8.42632803 -26.28491739 8.42632803 -20 2 C-13.57932391 -0.70344256 -6.88242018 -0.20647261 0 0 Z " fill="#75757E" transform="translate(422,320)"/>
<path d="M0 0 C4.54805635 -0.17835515 7.8794254 0.00214565 12 2 C12 2.66 12 3.32 12 4 C12.5775 4.226875 13.155 4.45375 13.75 4.6875 C18.74081445 7.59880843 20.31591127 11.70714971 22 17 C22.66 17.33 23.32 17.66 24 18 C24.02923559 21.85415052 24.04687777 25.70827215 24.0625 29.5625 C24.07087891 30.64853516 24.07925781 31.73457031 24.08789062 32.85351562 C24.13302028 47.70117188 24.13302028 47.70117188 20.4375 51.9375 C19.2309375 52.9584375 19.2309375 52.9584375 18 54 C17.34 53.67 16.68 53.34 16 53 C16 53.66 16 54.32 16 55 C15.34 54.67 14.68 54.34 14 54 C14.50660156 53.22076172 14.50660156 53.22076172 15.0234375 52.42578125 C15.46945312 51.72839844 15.91546875 51.03101563 16.375 50.3125 C16.81585938 49.62800781 17.25671875 48.94351563 17.7109375 48.23828125 C22.7201266 39.54050745 22.18846905 28.50866272 20.41796875 18.8125 C17.94086431 11.57347333 12.46071232 6.18980423 5.63671875 2.83984375 C3.25683139 1.89673266 3.25683139 1.89673266 0 1 C0 0.67 0 0.34 0 0 Z M17 54 C17.33 54.99 17.66 55.98 18 57 C17.01 57.495 17.01 57.495 16 58 C16.33 56.68 16.66 55.36 17 54 Z " fill="#888890" transform="translate(310,244)"/>
<path d="M0 0 C7.875 0 7.875 0 10.9375 3 C11.81728516 3.8353125 11.81728516 3.8353125 12.71484375 4.6875 C13.13894531 5.120625 13.56304687 5.55375 14 6 C13.67 6.66 13.34 7.32 13 8 C12.01 7.34 11.02 6.68 10 6 C6.67759676 6.3241369 5.39223697 6.60776303 3 9 C2.07752338 13.81407021 1.82568935 18.57269535 1.68359375 23.46484375 C1.64548584 24.70613037 1.60737793 25.94741699 1.56811523 27.22631836 C1.52501221 28.7810083 1.48190918 30.33569824 1.4375 31.9375 C1.293125 36.908125 1.14875 41.87875 1 47 C-11.87 47 -24.74 47 -38 47 C-38 46.67 -38 46.34 -38 46 C-25.46 46 -12.92 46 0 46 C0 30.82 0 15.64 0 0 Z " fill="#D1D1D4" transform="translate(264,313)"/>
<path d="M0 0 C0.66 0.33 1.32 0.66 2 1 C1.34 1.66 0.68 2.32 0 3 C0.66104736 2.9292627 1.32209473 2.85852539 2.00317383 2.78564453 C10.47440347 1.97163969 18.87591613 1.84601307 27.37670898 1.86962891 C29.72190553 1.87507997 32.06691795 1.86960318 34.41210938 1.86328125 C35.90364626 1.86394056 37.39518302 1.86521867 38.88671875 1.8671875 C39.58762131 1.86516327 40.28852386 1.86313904 41.01066589 1.86105347 C45.88498976 1.88498976 45.88498976 1.88498976 47 3 C49.32817964 3.36760731 51.6618385 3.70241581 54 4 C54 4.33 54 4.66 54 5 C33.21 5.33 12.42 5.66 -9 6 C-7.38371879 2.76743757 -4.23006285 2.32663296 -1 1 C-0.67 0.67 -0.34 0.34 0 0 Z " fill="#3D3D47" transform="translate(242,229)"/>
<path d="M0 0 C2 2 2 2 2 6 C2.66 6 3.32 6 4 6 C6.17375962 31.11468699 6.17375962 31.11468699 0 42 C-2.75 44.5625 -2.75 44.5625 -5 46 C-5.57040341 41.15157102 -3.77088151 38.86244089 -1 35 C0.01690458 31.94928627 0.12902823 29.8605438 0.1328125 26.66796875 C0.13410156 25.62189453 0.13539063 24.57582031 0.13671875 23.49804688 C0.13285156 22.40556641 0.12898438 21.31308594 0.125 20.1875 C0.12886719 19.10662109 0.13273437 18.02574219 0.13671875 16.91210938 C0.13478516 15.33719727 0.13478516 15.33719727 0.1328125 13.73046875 C0.13112061 12.29803833 0.13112061 12.29803833 0.12939453 10.83666992 C0.05734728 7.91943847 0.05734728 7.91943847 -0.57080078 4.7668457 C-1 2 -1 2 0 0 Z " fill="#43434D" transform="translate(461,260)"/>
<path d="M0 0 C0.66 0 1.32 0 2 0 C2.06058594 0.59167969 2.12117188 1.18335938 2.18359375 1.79296875 C2.68616596 6.7517926 2.68616596 6.7517926 3.6875 11.625 C4.30319645 16.30429303 2.55082793 20.17375811 0 24 C0.20625 24.78375 0.4125 25.5675 0.625 26.375 C1 29 1 29 -0.9375 31.625 C-1.618125 32.40875 -2.29875 33.1925 -3 34 C-3 34.99 -3 35.98 -3 37 C-3.66 37.66 -4.32 38.32 -5 39 C-4.6814823 41.10820797 -4.6814823 41.10820797 -4 43 C-4.99 43.66 -5.98 44.32 -7 45 C-7.99 44.01 -8.98 43.02 -10 42 C-9.34 41.01 -8.68 40.02 -8 39 C-7.5359375 37.5459375 -7.5359375 37.5459375 -7.0625 36.0625 C-6 33 -6 33 -4.4375 31.0625 C-0.48435057 25.39058995 -1.65129203 15.6238945 -1.39453125 8.94335938 C-1.35714844 8.07904297 -1.31976563 7.21472656 -1.28125 6.32421875 C-1.23581055 5.1499231 -1.23581055 5.1499231 -1.18945312 3.9519043 C-1 2 -1 2 0 0 Z " fill="#5A5A66" transform="translate(335,264)"/>
<path d="M0 0 C0.33 0 0.66 0 1 0 C1 30.36 1 60.72 1 92 C0.67 92 0.34 92 0 92 C-1.39026669 78.40453971 -1.11152609 64.77275356 -1.0625 51.125 C-1.0574752 48.68359467 -1.05291403 46.24218833 -1.04882812 43.80078125 C-1.03789966 37.86716538 -1.0212392 31.93358746 -1 26 C-1.33 26 -1.66 26 -2 26 C-2.25482625 4.50965251 -2.25482625 4.50965251 0 0 Z " fill="#3E3E48" transform="translate(217,260)"/>
<path d="M0 0 C0.9590625 0.433125 0.9590625 0.433125 1.9375 0.875 C2.56785156 1.1121875 3.19820313 1.349375 3.84765625 1.59375 C6.6922516 3.33772621 7.71443754 5.34230586 9.3125 8.25 C9.85648437 9.20648438 10.40046875 10.16296875 10.9609375 11.1484375 C11.9375 13.875 11.9375 13.875 11.1015625 16.2265625 C10.71742188 16.77054687 10.33328125 17.31453125 9.9375 17.875 C9.75574219 17.23691406 9.57398438 16.59882813 9.38671875 15.94140625 C9.13535156 15.11511719 8.88398438 14.28882813 8.625 13.4375 C8.25955078 12.20193359 8.25955078 12.20193359 7.88671875 10.94140625 C7.57347656 10.25949219 7.26023437 9.57757813 6.9375 8.875 C5.9475 8.545 4.9575 8.215 3.9375 7.875 C3.9375 7.215 3.9375 6.555 3.9375 5.875 C0.08054875 6.09539721 -1.07866402 6.89046124 -3.9375 9.625 C-6.49452839 13.53574931 -5.9424228 13.60707512 -5.0625 17.875 C-5.30075582 20.51772255 -5.5970786 23.07226483 -6 25.6875 C-6.09990234 26.38037109 -6.19980469 27.07324219 -6.30273438 27.78710938 C-6.54851588 29.48417213 -6.80448152 31.17975459 -7.0625 32.875 C-7.3925 32.875 -7.7225 32.875 -8.0625 32.875 C-8.09177632 29.35418442 -8.10939119 25.83340061 -8.125 22.3125 C-8.13337891 21.32185547 -8.14175781 20.33121094 -8.15039062 19.31054688 C-8.19759467 5.10212937 -8.19759467 5.10212937 -4.75 1.375 C-2.0625 -0.125 -2.0625 -0.125 0 0 Z " fill="#9E9EA4" transform="translate(273.0625,318.125)"/>
<path d="M0 0 C0.33 0.99 0.66 1.98 1 3 C0.67 3.66 0.34 4.32 0 5 C-0.09472912 6.51845202 -0.1298841 8.04110384 -0.125 9.5625 C-0.12757813 10.36816406 -0.13015625 11.17382812 -0.1328125 12.00390625 C-0.22011391 13.99942021 -0.22011391 13.99942021 1 15 C1.14115161 17.67058851 1.04247107 20.32432238 1 23 C-2.06090669 20.05682049 -4.79815947 16.91841585 -7.5390625 13.68359375 C-9.26805257 11.6910945 -11.09878937 9.82808715 -13 8 C-12.39671875 7.67386719 -11.7934375 7.34773438 -11.171875 7.01171875 C-10.37265625 6.57472656 -9.5734375 6.13773437 -8.75 5.6875 C-7.96109375 5.25824219 -7.1721875 4.82898438 -6.359375 4.38671875 C-4.10272866 3.0603786 -2.06001403 1.61115776 0 0 Z " fill="#7F7F88" transform="translate(323,299)"/>
<path d="M0 0 C0.66 0.33 1.32 0.66 2 1 C-3.21114766 6.59245115 -8.1391158 10.90821053 -16 12 C-16.99 12.33 -17.98 12.66 -19 13 C-20.56118428 13.06740865 -22.1250252 13.08514456 -23.6875 13.0625 C-24.89986328 13.04896484 -24.89986328 13.04896484 -26.13671875 13.03515625 C-27.05904297 13.01775391 -27.05904297 13.01775391 -28 13 C-28 12.34 -28 11.68 -28 11 C-29.65 11.33 -31.3 11.66 -33 12 C-33.33 11.34 -33.66 10.68 -34 10 C-34.99 9.67 -35.98 9.34 -37 9 C-37 8.34 -37 7.68 -37 7 C-36.29617187 7.15855469 -35.59234375 7.31710937 -34.8671875 7.48046875 C-24.39767215 9.37753352 -13.84505966 7.87581936 -4 4 C-1.61018495 2.00487405 -1.61018495 2.00487405 0 0 Z " fill="#464650" transform="translate(269,357)"/>
<path d="M0 0 C1.1009903 0.02009628 2.20198059 0.04019257 3.33633423 0.06089783 C5.12543716 0.10145042 5.12543716 0.10145042 6.95068359 0.14282227 C8.16863617 0.16643326 9.38658875 0.19004425 10.64144897 0.21437073 C14.5441209 0.29114476 18.44660122 0.37511009 22.34912109 0.45922852 C24.98973661 0.51243543 27.63036158 0.56517591 30.27099609 0.61743164 C36.7554905 0.74677848 43.23984179 0.88203498 49.72412109 1.02172852 C49.72412109 1.35172852 49.72412109 1.68172852 49.72412109 2.02172852 C33.22412109 2.35172852 16.72412109 2.68172852 -0.27587891 3.02172852 C-0.60587891 3.68172852 -0.93587891 4.34172852 -1.27587891 5.02172852 C-4.67524749 6.62143138 -7.93546062 7.91698443 -11.52587891 9.02172852 C-14.23028472 10.00514881 -15.47911946 10.82568919 -17.27587891 13.02172852 C-15.91512613 7.40862331 -11.64966697 4.41141426 -7.27587891 1.02172852 C-4.68737974 -0.27252107 -2.8965719 -0.0595186 0 0 Z " fill="#53535D" transform="translate(368.27587890625,233.978271484375)"/>
<path d="M0 0 C11.22 0 22.44 0 34 0 C33.01 0.33 32.02 0.66 31 1 C31 1.66 31 2.32 31 3 C26.56427528 4.25262367 22.33036524 4.18397121 17.75 4.1875 C16.92886719 4.19974609 16.10773438 4.21199219 15.26171875 4.22460938 C9.83690811 4.23750512 5.21013353 3.51862187 0 2 C0 1.34 0 0.68 0 0 Z " fill="#6E6E77" transform="translate(300,360)"/>
<path d="M0 0 C1.09865723 2.75651126 1.0308518 3.90847729 0.06640625 6.76953125 C-4.04333205 15.08507965 -8.35914458 21.29063649 -17.125 24.9375 C-20.46528857 26.02012317 -23.47892816 26.26408039 -27 26 C-24.35555058 23.92732343 -21.73853897 22.2765199 -18.75 20.75 C-9.44027563 15.58302654 -4.57860173 9.59078316 0 0 Z " fill="#78787F" transform="translate(455,292)"/>
<path d="M0 0 C0.33 0 0.66 0 1 0 C1.01030746 1.10389572 1.02061493 2.20779144 1.03123474 3.34513855 C1.128988 13.74795004 1.23172396 24.15070197 1.33933926 34.55341625 C1.39450519 39.90155692 1.44791507 45.24970311 1.49731445 50.59790039 C1.54505135 55.75911991 1.59739752 60.92027397 1.65294075 66.08141518 C1.67332206 68.0505644 1.69204204 70.01973154 1.70907402 71.98891258 C1.73321162 74.74682463 1.76325331 77.50461386 1.79467773 80.26245117 C1.8004332 81.07669052 1.80618866 81.89092987 1.81211853 82.72984314 C1.8622788 86.6024017 2.06113504 90.23445368 3 94 C2.34 94 1.68 94 1 94 C-0.65875797 90.68248407 -0.12889303 86.97402946 -0.11352539 83.32763672 C-0.11374443 81.9812059 -0.11374443 81.9812059 -0.1139679 80.60757446 C-0.11326953 77.63158782 -0.10548067 74.65566325 -0.09765625 71.6796875 C-0.0957918 69.61988357 -0.09436802 67.56007919 -0.09336853 65.50027466 C-0.08954548 60.07182598 -0.07971699 54.64340395 -0.06866455 49.21496582 C-0.05844588 43.67847046 -0.05386993 38.14197081 -0.04882812 32.60546875 C-0.03809455 21.73696744 -0.02102065 10.86848594 0 0 Z " fill="#5F5F67" transform="translate(221,257)"/>
<path d="M0 0 C1.45599609 0.00580078 1.45599609 0.00580078 2.94140625 0.01171875 C5.4375 0.3125 5.4375 0.3125 7.4375 2.3125 C6.40625 2.209375 5.375 2.10625 4.3125 2 C-0.71973716 2.40582558 -2.02594709 3.86220448 -5.5625 7.3125 C-5.30750159 9.10648884 -5.03296186 10.89770875 -4.75 12.6875 C-4.59917969 13.68523437 -4.44835937 14.68296875 -4.29296875 15.7109375 C-3.77477702 18.6412364 -3.77477702 18.6412364 -0.5625 20.3125 C-2.9056213 20.05688677 -5.24093403 19.71979228 -7.5625 19.3125 C-9.03944068 16.35861864 -8.77180797 13.66088118 -8.8125 10.375 C-8.83828125 9.12847656 -8.8640625 7.88195312 -8.890625 6.59765625 C-8.5625 3.3125 -8.5625 3.3125 -7.39453125 1.390625 C-4.8508755 -0.10628116 -2.93437711 -0.05079481 0 0 Z " fill="#9F9FA5" transform="translate(404.5625,269.6875)"/>
<path d="M0 0 C1.26100525 0.00007553 2.5220105 0.00015106 3.82122803 0.00022888 C5.19234253 0.00533511 6.56345662 0.01055109 7.93457031 0.01586914 C9.34132843 0.01773511 10.74808719 0.01915817 12.15484619 0.02015686 C15.85050258 0.02396796 19.54611944 0.03378619 23.24176025 0.04486084 C27.01566025 0.05510525 30.78956666 0.05966097 34.56347656 0.06469727 C41.96323414 0.07540975 49.36295918 0.09246923 56.76269531 0.11352539 C56.76269531 0.44352539 56.76269531 0.77352539 56.76269531 1.11352539 C56.03765808 1.1127298 55.31262085 1.1119342 54.56561279 1.1111145 C47.68189446 1.10889277 40.79881081 1.13567174 33.91535568 1.19380379 C30.37763893 1.22269045 26.84057619 1.24095132 23.30273438 1.23364258 C19.22105563 1.225702 15.14103755 1.26628939 11.05957031 1.30883789 C9.80907898 1.29974396 8.55858765 1.29065002 7.27020264 1.28128052 C-0.64809908 1.41036232 -6.06000536 2.92326837 -12.9196167 6.92697144 C-13.68445374 7.31853424 -14.44929077 7.71009705 -15.23730469 8.11352539 C-15.89730469 7.78352539 -16.55730469 7.45352539 -17.23730469 7.11352539 C-13.48730469 4.11352539 -13.48730469 4.11352539 -11.23730469 4.11352539 C-10.90730469 3.12352539 -10.57730469 2.13352539 -10.23730469 1.11352539 C-6.94797987 -0.22449945 -3.50637407 -0.00701275 0 0 Z " fill="#494953" transform="translate(242.2373046875,233.886474609375)"/>
<path d="M0 0 C4.93393167 6.00652551 4.2452236 12.26886434 4.3125 19.75 C4.34150391 20.80960937 4.37050781 21.86921875 4.40039062 22.9609375 C4.46531781 31.01190856 3.28006306 36.35548549 -2.25 42.5 C-2.8275 42.995 -3.405 43.49 -4 44 C-2.125 38.25 -2.125 38.25 -1 36 C-0.34 36 0.32 36 1 36 C1.02903892 31.91668161 1.04681189 27.8333898 1.0625 23.75 C1.07087891 22.59113281 1.07925781 21.43226563 1.08789062 20.23828125 C1.09272461 18.56572266 1.09272461 18.56572266 1.09765625 16.859375 C1.10289307 15.83295898 1.10812988 14.80654297 1.11352539 13.74902344 C1.01253819 11.30361289 0.62508262 9.34582258 0 7 C-0.03888349 4.66699067 -0.0448635 2.33290199 0 0 Z " fill="#595962" transform="translate(458,260)"/>
<path d="M0 0 C4.54805635 -0.17835515 7.8794254 0.00214565 12 2 C12 2.66 12 3.32 12 4 C12.5775 4.226875 13.155 4.45375 13.75 4.6875 C18.74081445 7.59880843 20.31591127 11.70714971 22 17 C22.66 17.33 23.32 17.66 24 18 C24 20.97 24 23.94 24 27 C22.88209264 24.76418528 21.78567674 22.51606627 20.7734375 20.23046875 C16.8156119 11.61832868 12.54653788 5.54685558 3.5 2.0625 C2.345 1.711875 1.19 1.36125 0 1 C0 0.67 0 0.34 0 0 Z " fill="#7D7D85" transform="translate(310,244)"/>
<path d="M0 0 C1.010625 0.350625 2.02125 0.70125 3.0625 1.0625 C4.0525 1.0625 5.0425 1.0625 6.0625 1.0625 C6.0625 1.7225 6.0625 2.3825 6.0625 3.0625 C7.3825 2.7325 8.7025 2.4025 10.0625 2.0625 C10.5575 3.5475 10.5575 3.5475 11.0625 5.0625 C9.4997038 4.91987588 7.93727304 4.77324489 6.375 4.625 C5.50488281 4.54378906 4.63476562 4.46257812 3.73828125 4.37890625 C1.0625 4.0625 1.0625 4.0625 -1 3.5625 C-5.19856102 2.84785132 -9.36094558 2.82568581 -13.61328125 2.74609375 C-14.5384404 2.72531265 -15.46359955 2.70453156 -16.41679382 2.68312073 C-19.36112307 2.6179344 -22.30553865 2.55888442 -25.25 2.5 C-27.25065983 2.45678536 -29.25131106 2.41317014 -31.25195312 2.36914062 C-36.14704779 2.2622848 -41.04222897 2.16093081 -45.9375 2.0625 C-45.9375 1.7325 -45.9375 1.4025 -45.9375 1.0625 C-44.70596191 1.03744385 -43.47442383 1.0123877 -42.20556641 0.98657227 C-37.64702507 0.89257388 -33.08863882 0.79233485 -28.53027344 0.69018555 C-26.55537538 0.64680797 -24.58043913 0.605135 -22.60546875 0.56518555 C-19.7707161 0.50755127 -16.93615622 0.4438373 -14.1015625 0.37890625 C-13.21506012 0.36219376 -12.32855774 0.34548126 -11.41519165 0.32826233 C-7.35746185 0.22964854 -3.67480243 -1.17280929 0 0 Z " fill="#41414C" transform="translate(423.9375,231.9375)"/>
<path d="M0 0 C10.05517241 0.63529412 10.05517241 0.63529412 14 4 C16.18323877 7.58674941 17.39015722 10.85306912 18 15 C18.66 14.01 19.32 13.02 20 12 C20 15.63 20 19.26 20 23 C17.62987546 19.83983394 16.5494399 18.11877708 15.25 14.625 C12.21968758 7.59282461 6.89579234 4.02742103 0 1 C0 0.67 0 0.34 0 0 Z " fill="#686870" transform="translate(437,245)"/>
<path d="M0 0 C0.495 0.99 0.495 0.99 1 2 C-0.64516407 3.69355125 -2.31067335 5.35143458 -4 7 C-4.804375 7.804375 -5.60875 8.60875 -6.4375 9.4375 C-15.4196541 16.66928561 -25.73615689 19.01037795 -37 18 C-37 17.67 -37 17.34 -37 17 C-35.02 17 -33.04 17 -31 17 C-31 16.34 -31 15.68 -31 15 C-30.23816406 14.90203125 -29.47632813 14.8040625 -28.69140625 14.703125 C-16.25936965 12.90273019 -8.73907239 8.81756705 0 0 Z " fill="#585861" transform="translate(453,304)"/>
<path d="M0 0 C0.6875 1.6875 0.6875 1.6875 1 4 C0.52651123 4.70471436 0.05302246 5.40942871 -0.43481445 6.13549805 C-2.42607868 9.7797818 -2.57542672 13.08645191 -2.73046875 17.14453125 C-2.770616 17.91431808 -2.81076324 18.68410492 -2.85212708 19.47721863 C-2.97669964 21.92187964 -3.08236351 24.36693374 -3.1875 26.8125 C-3.26893328 28.47597307 -3.3516022 30.13938615 -3.43554688 31.80273438 C-3.63801164 35.86793415 -3.82353026 39.93359222 -4 44 C-5.62517737 41.13450272 -6.24945964 39.09271778 -6.23046875 35.8046875 C-6.22865601 34.61383545 -6.22865601 34.61383545 -6.22680664 33.39892578 C-6.21383545 32.56603027 -6.20086426 31.73313477 -6.1875 30.875 C-6.18032959 30.02276855 -6.17315918 29.17053711 -6.16577148 28.29248047 C-6.09095479 22.48559671 -5.84234617 16.752021 -5 11 C-4.896875 10.0925 -4.79375 9.185 -4.6875 8.25 C-3.71743195 5.07523184 -1.92834152 2.6747963 0 0 Z " fill="#5A5A65" transform="translate(355,242)"/>
<path d="M0 0 C-2.9477659 3.41320262 -5.79662734 4.78302952 -10.30078125 5.2265625 C-16.00866914 5.41711414 -19.94268013 4.63860167 -25 2 C-24.67 1.34 -24.34 0.68 -24 0 C-22.83082031 0.01160156 -21.66164063 0.02320313 -20.45703125 0.03515625 C-18.90885577 0.04453913 -17.36067855 0.0536388 -15.8125 0.0625 C-15.04357422 0.07087891 -14.27464844 0.07925781 -13.48242188 0.08789062 C-9.32507144 0.10573333 -3.53743227 -1.76871613 0 0 Z " fill="#4B4B57" transform="translate(332,365)"/>
<path d="M0 0 C0.33 0 0.66 0 1 0 C1 10.56 1 21.12 1 32 C0.01 32.495 0.01 32.495 -1 33 C-3.13645572 26.33928512 -2.93838047 20.89836454 -2 14 C-1.34 14 -0.68 14 0 14 C-0.08378906 13.07316406 -0.16757812 12.14632813 -0.25390625 11.19140625 C-0.35574219 9.99386719 -0.45757812 8.79632813 -0.5625 7.5625 C-0.71912109 5.77005859 -0.71912109 5.77005859 -0.87890625 3.94140625 C-0.91886719 2.97074219 -0.95882813 2.00007813 -1 1 C-0.67 0.67 -0.34 0.34 0 0 Z " fill="#585864" transform="translate(350,291)"/>
<path d="M0 0 C0.99 0.33 1.98 0.66 3 1 C2 4 2 4 -0.75 5.6875 C-7.016406 10.14628888 -9.37357714 15.90052906 -10.73828125 23.3125 C-10.82464844 23.869375 -10.91101563 24.42625 -11 25 C-11.66 25 -12.32 25 -13 25 C-12.10049078 9.86343113 -12.10049078 9.86343113 -7.05859375 5.20703125 C-5.08333759 3.71940541 -3.0743481 2.34414036 -1 1 C-0.67 0.67 -0.34 0.34 0 0 Z " fill="#3A3A44" transform="translate(229,234)"/>
<path d="M0 0 C10.56 0 21.12 0 32 0 C29 3 29 3 26.73168945 3.34057617 C25.86761475 3.32486572 25.00354004 3.30915527 24.11328125 3.29296875 C23.17548828 3.28330078 22.23769531 3.27363281 21.27148438 3.26367188 C20.29501953 3.23853516 19.31855469 3.21339844 18.3125 3.1875 C17.32443359 3.17396484 16.33636719 3.16042969 15.31835938 3.14648438 C12.87835769 3.11112203 10.43945281 3.06177033 8 3 C8 2.34 8 1.68 8 1 C5.36 1 2.72 1 0 1 C0 0.67 0 0.34 0 0 Z " fill="#73737C" transform="translate(358,360)"/>
<path d="M0 0 C3.68266103 0.59950296 7.34543185 1.24758891 11 2 C11 2.66 11 3.32 11 4 C12.1446875 4.0928125 12.1446875 4.0928125 13.3125 4.1875 C16 5 16 5 17.8125 7 C19.42037032 11.06198818 19.25373128 14.68656819 19 19 C18.67 19 18.34 19 18 19 C17.81824219 18.38511719 17.63648438 17.77023437 17.44921875 17.13671875 C17.19785156 16.32847656 16.94648438 15.52023437 16.6875 14.6875 C16.44386719 13.88699219 16.20023437 13.08648437 15.94921875 12.26171875 C14.89842992 9.75798735 14.18301373 8.60853643 12 7 C9.04964438 5.99061248 9.04964438 5.99061248 5.8125 5.3125 C4.72582031 5.06113281 3.63914062 4.80976563 2.51953125 4.55078125 C1.68808594 4.36902344 0.85664063 4.18726563 0 4 C0 2.68 0 1.36 0 0 Z " fill="#5C5C65" transform="translate(436,241)"/>
<path d="M0 0 C0.33 0 0.66 0 1 0 C1.04898437 0.98742187 1.09796875 1.97484375 1.1484375 2.9921875 C1.22320312 4.27351563 1.29796875 5.55484375 1.375 6.875 C1.44460938 8.15117187 1.51421875 9.42734375 1.5859375 10.7421875 C1.67241106 14.08061699 1.67241106 14.08061699 4 16 C4.4140625 18.3828125 4.4140625 18.3828125 4.625 21.125 C4.69976562 22.03507812 4.77453125 22.94515625 4.8515625 23.8828125 C4.90054687 24.58148438 4.94953125 25.28015625 5 26 C1.62482409 23.74988273 1.28685315 22.80704058 -0.0625 19.125 C-1.41109892 15.4705777 -1.41109892 15.4705777 -3.11328125 11.9765625 C-4.18323275 9.59156048 -4.20148192 7.85038524 -4.125 5.25 C-4.10695313 4.45078125 -4.08890625 3.6515625 -4.0703125 2.828125 C-4.04710937 2.22484375 -4.02390625 1.6215625 -4 1 C-3.690625 1.639375 -3.38125 2.27875 -3.0625 2.9375 C-2.1654837 4.93610821 -2.1654837 4.93610821 -1 6 C-0.67 4.02 -0.34 2.04 0 0 Z " fill="#70707B" transform="translate(328,313)"/>
<path d="M0 0 C6.75 0 6.75 0 9.875 3 C10.47054688 3.556875 11.06609375 4.11375 11.6796875 4.6875 C12.11539062 5.120625 12.55109375 5.55375 13 6 C12.67 6.66 12.34 7.32 12 8 C11.01 7.34 10.02 6.68 9 6 C5.67759676 6.3241369 4.39223697 6.60776303 2 9 C1.59952556 11.32275177 1.2602896 13.65739357 1 16 C0.67 16 0.34 16 0 16 C0 10.72 0 5.44 0 0 Z " fill="#B2B2B7" transform="translate(265,313)"/>
<path d="M0 0 C2.97 0 5.94 0 9 0 C7.37660195 1.70884005 5.70680947 3.37446717 4 5 C3.34 5 2.68 5 2 5 C1.67 17.21 1.34 29.42 1 42 C0.67 42 0.34 42 0 42 C0 28.14 0 14.28 0 0 Z " fill="#B2B2B7" transform="translate(395,317)"/>
<path d="M0 0 C0 0.66 0 1.32 0 2 C-0.61875 2.5775 -1.2375 3.155 -1.875 3.75 C-5.51729239 7.60654488 -6.01391937 11.63067901 -6.375 16.75 C-6.82308333 22.31299677 -8.69435194 26.95974611 -11 32 C-12.41273726 28.16000946 -11.59601801 25.22644727 -10.6875 21.3125 C-9.51129962 16.30468553 -9.51129962 16.30468553 -8.52734375 11.2578125 C-7.69367526 6.45005441 -5.95891246 0 0 0 Z " fill="#60606A" transform="translate(408,324)"/>
<path d="M0 0 C0.99 0.33 1.98 0.66 3 1 C3.33 3.31 3.66 5.62 4 8 C3.01 8.495 3.01 8.495 2 9 C1.60691653 10.95878868 1.60691653 10.95878868 1.5 13.25 C1.18520449 16.83866883 0.58627129 19.72170599 -1 23 C-1.33 23 -1.66 23 -2 23 C-1.85823579 20.29139876 -1.71171784 17.58319248 -1.5625 14.875 C-1.50352539 13.73417969 -1.50352539 13.73417969 -1.44335938 12.5703125 C-1.20490998 8.31490797 -0.79769763 4.19629174 0 0 Z " fill="#686871" transform="translate(267,336)"/>
<path d="M0 0 C0.66 0 1.32 0 2 0 C2.06058594 0.59167969 2.12117188 1.18335938 2.18359375 1.79296875 C2.26738281 2.58316406 2.35117187 3.37335938 2.4375 4.1875 C2.52257812 5.0125 2.60765625 5.8375 2.6953125 6.6875 C2.94862636 9.09181587 2.94862636 9.09181587 3.8125 11.6875 C4.10754508 15.32638938 2.18381602 17.23811503 0 20 C-0.33 20 -0.66 20 -1 20 C-1.02689449 17.04160645 -1.04678741 14.08345573 -1.0625 11.125 C-1.07087891 10.28324219 -1.07925781 9.44148438 -1.08789062 8.57421875 C-1.09111328 7.76855469 -1.09433594 6.96289062 -1.09765625 6.1328125 C-1.10289307 5.38918457 -1.10812988 4.64555664 -1.11352539 3.87939453 C-1 2 -1 2 0 0 Z " fill="#676771" transform="translate(335,264)"/>
<path d="M0 0 C0.99 0.33 1.98 0.66 3 1 C2.48308594 1.51949219 1.96617187 2.03898437 1.43359375 2.57421875 C0.77488281 3.27160156 0.11617188 3.96898437 -0.5625 4.6875 C-1.22378906 5.37199219 -1.88507813 6.05648438 -2.56640625 6.76171875 C-4.27338755 8.88572328 -4.27338755 8.88572328 -3.65625 11.28125 C-3.4396875 12.1784375 -3.223125 13.075625 -3 14 C-3.23825582 16.64272255 -3.5345786 19.19726483 -3.9375 21.8125 C-4.03740234 22.50537109 -4.13730469 23.19824219 -4.24023438 23.91210938 C-4.48601588 25.60917213 -4.74198152 27.30475459 -5 29 C-5.33 29 -5.66 29 -6 29 C-6.08741124 25.43765572 -6.14052896 21.87558892 -6.1875 18.3125 C-6.21263672 17.30509766 -6.23777344 16.29769531 -6.26367188 15.25976562 C-6.35691643 5.8420652 -6.35691643 5.8420652 -3 2 C-2.01 1.34 -1.02 0.68 0 0 Z " fill="#8F8F96" transform="translate(271,322)"/>
<path d="M0 0 C3.875 1.75 3.875 1.75 5 4 C5.38325336 8.0624856 5.40033293 10.3179513 3.3125 13.875 C0.78639739 16.19628348 -0.62765029 16.71897086 -4 17 C-3.34 16.4225 -2.68 15.845 -2 15.25 C1.01105915 10.35702888 0.32185363 5.60561742 0 0 Z " fill="#ACACB1" transform="translate(289,270)"/>
<path d="M0 0 C0.8971875 0.309375 0.8971875 0.309375 1.8125 0.625 C1.34199219 0.98851562 0.87148438 1.35203125 0.38671875 1.7265625 C-5.25831453 6.2846639 -8.0135333 10.16030373 -8.875 17.5 C-8.99064061 18.87408258 -9.09881893 20.24891448 -9.1875 21.625 C-9.5175 21.625 -9.8475 21.625 -10.1875 21.625 C-10.32322155 19.22725255 -10.42186868 16.83724755 -10.5 14.4375 C-10.54189453 13.76396484 -10.58378906 13.09042969 -10.62695312 12.39648438 C-10.72281763 8.46603977 -10.36646264 6.84473134 -7.85546875 3.76171875 C-2.60160317 -0.44598912 -2.60160317 -0.44598912 0 0 Z " fill="#898990" transform="translate(406.1875,317.375)"/>
<path d="M0 0 C2.37531394 -0.0543965 4.74935883 -0.09385864 7.125 -0.125 C7.79015625 -0.14175781 8.4553125 -0.15851563 9.140625 -0.17578125 C13.52680742 -0.21878304 16.91002928 0.483494 21 2 C23.66701495 2.47274847 26.30183576 2.72087956 29 3 C29 3.66 29 4.32 29 5 C29.99 5.33 30.98 5.66 32 6 C28.61725734 7.12758089 27.23221777 6.81750262 23.8125 6.0625 C22.91144531 5.86785156 22.01039063 5.67320312 21.08203125 5.47265625 C20.39496094 5.31667969 19.70789063 5.16070312 19 5 C19 4.67 19 4.34 19 4 C9.595 2.515 9.595 2.515 0 1 C0 0.67 0 0.34 0 0 Z " fill="#6B6B73" transform="translate(291,239)"/>
<path d="M0 0 C0.8971875 0.309375 0.8971875 0.309375 1.8125 0.625 C-7.37787284 6.62687614 -17.71970513 5.28206405 -28.1875 3.625 C-28.1875 2.965 -28.1875 2.305 -28.1875 1.625 C-27.16595825 1.64071045 -27.16595825 1.64071045 -26.1237793 1.65673828 C-23.04089034 1.69828878 -19.95806029 1.72432311 -16.875 1.75 C-15.80314453 1.76675781 -14.73128906 1.78351563 -13.62695312 1.80078125 C-12.08491211 1.81044922 -12.08491211 1.81044922 -10.51171875 1.8203125 C-9.0899231 1.83602295 -9.0899231 1.83602295 -7.6394043 1.85205078 C-4.42126955 1.55404567 -3.2090432 -0.55012169 0 0 Z " fill="#5C5C67" transform="translate(392.1875,360.375)"/>
<path d="M0 0 C0.66 0.33 1.32 0.66 2 1 C1.34 2.65 0.68 4.3 0 6 C-0.33 6 -0.66 6 -1 6 C-1.33 8.31 -1.66 10.62 -2 13 C-4.64 11.02 -7.28 9.04 -10 7 C-6.72497903 4.54373427 -3.41548804 2.25111712 0 0 Z " fill="#9D9DA3" transform="translate(320,301)"/>
<path d="M0 0 C-1.62220414 1.93119541 -2.547484 2.90260132 -5.05078125 3.44140625 C-5.79714844 3.48136719 -6.54351562 3.52132813 -7.3125 3.5625 C-13.55733111 4.07785014 -18.46161046 6.09893881 -24 9 C-23.01206088 6.49336724 -22.3573248 5.22511462 -20.046875 3.76953125 C-13.17542449 0.90642687 -7.49590867 -0.14991817 0 0 Z " fill="#4A4A55" transform="translate(429,322)"/>
<path d="M0 0 C4.95 0 9.9 0 15 0 C15 0.33 15 0.66 15 1 C14.22914063 1.12117188 13.45828125 1.24234375 12.6640625 1.3671875 C11.66117187 1.53476562 10.65828125 1.70234375 9.625 1.875 C8.12839844 2.11863281 8.12839844 2.11863281 6.6015625 2.3671875 C3.8574885 2.7958802 3.8574885 2.7958802 2 5 C1.63168919 6.93257855 1.63168919 6.93257855 1.5859375 9.1328125 C1.54726563 9.93847656 1.50859375 10.74414062 1.46875 11.57421875 C1.4378125 12.41597656 1.406875 13.25773437 1.375 14.125 C1.33632813 14.97449219 1.29765625 15.82398438 1.2578125 16.69921875 C1.16343506 18.79911684 1.08062414 20.89952891 1 23 C0.67 23 0.34 23 0 23 C0 15.41 0 7.82 0 0 Z " fill="#C1C1C5" transform="translate(395,268)"/>
<path d="M0 0 C2.19398174 2.19398174 2.6546935 2.97856817 3 6 C1.93033148 9.98694631 0.46865468 11.80318537 -3 14 C-2.09276387 9.31261335 -1.0452733 4.65806256 0 0 Z M-4 16 C-6.8125 17.5625 -6.8125 17.5625 -10 19 C-10.99 18.67 -11.98 18.34 -13 18 C-7.375 14.875 -7.375 14.875 -4 16 Z " fill="#54545E" transform="translate(269,345)"/>
<path d="M0 0 C2.79282574 2.39915616 2.98407774 2.87859273 3.5 6.8125 C3.3587578 11.58825189 1.29635909 13.70364091 -2 17 C-2.99 16.67 -3.98 16.34 -5 16 C-4.360625 15.401875 -3.72125 14.80375 -3.0625 14.1875 C-0.12860483 9.65329837 -0.18569688 5.30164592 0 0 Z " fill="#B1B1B6" transform="translate(416,272)"/>
<path d="M0 0 C3.16115776 1.36983503 3.9927092 1.9890638 6 5 C6.99 5.33 7.98 5.66 9 6 C9.6875 8.0625 9.6875 8.0625 10 10 C6.79064469 10.35659503 5.41011015 10.29619066 2.75 8.375 C0.67534985 5.55940337 0.31342642 3.44769066 0 0 Z " fill="#64646E" transform="translate(289,350)"/>
<path d="M0 0 C2.14438609 4.28877217 2.33341979 7.4141221 2.3125 12.0625 C2.32861328 12.78244141 2.34472656 13.50238281 2.36132812 14.24414062 C2.36328125 16.34765625 2.36328125 16.34765625 2 20 C1.01 20.99 0.02 21.98 -1 23 C-0.67 15.41 -0.34 7.82 0 0 Z " fill="#78787F" transform="translate(457,268)"/>
<path d="M0 0 C1.32 0.33 2.64 0.66 4 1 C4.33 4.96 4.66 8.92 5 13 C1.34666857 15.63379708 -1.48521602 17.46884894 -6 18 C-4.03088945 15.92149442 -2.20891673 14.45709971 0.1875 12.8125 C3.13185839 10.40013636 3.13185839 10.40013636 3.38671875 7.8984375 C3.40900749 5.43635951 3.40900749 5.43635951 3 2 C2.01 1.67 1.02 1.34 0 1 C0 0.67 0 0.34 0 0 Z " fill="#A1A1A7" transform="translate(285,269)"/>
<path d="M0 0 C3.73487777 0.4979837 5.81237635 0.87491756 9 3 C10.65549531 3.38499891 12.3222433 3.72793135 14 4 C14 5.32 14 6.64 14 8 C13.34 8 12.68 8 12 8 C12 7.34 12 6.68 12 6 C10.88625 5.855625 9.7725 5.71125 8.625 5.5625 C5 5 5 5 3 4 C3 3.34 3 2.68 3 2 C2.01 1.67 1.02 1.34 0 1 C0 0.67 0 0.34 0 0 Z " fill="#46464F" transform="translate(435,237)"/>
<path d="M0 0 C0.66 0 1.32 0 2 0 C2 5.28 2 10.56 2 16 C1.34 16.33 0.68 16.66 0 17 C-1.33257403 5.47835991 -1.33257403 5.47835991 0 0 Z " fill="#4D4D5A" transform="translate(348,305)"/>
<path d="M0 0 C0.99 0.33 1.98 0.66 3 1 C2.484375 1.5775 1.96875 2.155 1.4375 2.75 C-0.26505193 4.87827523 -0.26505193 4.87827523 0.3125 7.25 C0.6528125 8.11625 0.6528125 8.11625 1 9 C0.01 9.66 -0.98 10.32 -2 11 C-2.99 10.01 -3.98 9.02 -5 8 C-3.35 5.36 -1.7 2.72 0 0 Z " fill="#50505C" transform="translate(330,298)"/>
<path d="M0 0 C0.33 0.99 0.66 1.98 1 3 C1.66 3.33 2.32 3.66 3 4 C2.77042223 5.4409026 2.51543646 6.87777015 2.25 8.3125 C2.11078125 9.11300781 1.9715625 9.91351563 1.828125 10.73828125 C0.80297476 13.53810196 -0.51451598 14.43899479 -3 16 C-2.69177379 13.7077546 -2.37829126 11.41621545 -2.0625 9.125 C-1.88847656 7.84882813 -1.71445312 6.57265625 -1.53515625 5.2578125 C-1 2 -1 2 0 0 Z " fill="#464652" transform="translate(403,337)"/>
<path d="M0 0 C2.6815279 3.07692746 3.42087807 5.19734663 3.6875 9.25 C3.75324219 10.14203125 3.81898438 11.0340625 3.88671875 11.953125 C3.92410156 12.62859375 3.96148437 13.3040625 4 14 C3.01 14 2.02 14 1 14 C-0.512545 8.83955235 -1.33500455 5.34001821 0 0 Z " fill="#6C6C75" transform="translate(284,334)"/>
<path d="M0 0 C0.99 0.33 1.98 0.66 3 1 C2 4 2 4 -0.8125 5.8125 C-4.4328434 8.29704939 -5.80199108 10.2802926 -8 14 C-8.33 13.34 -8.66 12.68 -9 12 C-6.8272631 7.41641804 -3.78699616 3.36621881 0 0 Z " fill="#41414A" transform="translate(229,234)"/>
<path d="M0 0 C0.66 0.33 1.32 0.66 2 1 C1.2884375 2.4540625 1.2884375 2.4540625 0.5625 3.9375 C-1.28852999 8.19836149 -1.69751593 12.40015606 -2 17 C-2.66 16.67 -3.32 16.34 -4 16 C-4.3690205 6.58997722 -4.3690205 6.58997722 -2 2 C-1.34 2 -0.68 2 0 2 C0 1.34 0 0.68 0 0 Z " fill="#70707A" transform="translate(326,297)"/>
<path d="M0 0 C8.04995287 0.34401508 8.04995287 0.34401508 11.625 2.8125 C13 5 13 5 12.5859375 7.13671875 C12.39257812 7.75160156 12.19921875 8.36648437 12 9 C8 6 4 3 0 0 Z " fill="#797980" transform="translate(437,245)"/>
<path d="M0 0 C0.61230469 0.34804687 1.22460938 0.69609375 1.85546875 1.0546875 C1.19160156 1.34601563 0.52773438 1.63734375 -0.15625 1.9375 C-5.87363526 4.59170221 -9.52685387 6.86934993 -13.14453125 12.0546875 C-13.47453125 11.3946875 -13.80453125 10.7346875 -14.14453125 10.0546875 C-4.29625624 -1.89379601 -4.29625624 -1.89379601 0 0 Z " fill="#484853" transform="translate(365.14453125,234.9453125)"/>
<path d="M0 0 C1.09570312 0.00902344 2.19140625 0.01804687 3.3203125 0.02734375 C4.16335938 0.03894531 5.00640625 0.05054688 5.875 0.0625 C5.875 0.3925 5.875 0.7225 5.875 1.0625 C3.27188008 1.73349984 0.66764602 2.39945338 -1.9375 3.0625 C-2.67548828 3.25328125 -3.41347656 3.4440625 -4.17382812 3.640625 C-7.23035341 4.41512914 -9.95873478 5.0625 -13.125 5.0625 C-8.29048428 1.11855297 -6.25284952 -0.06651968 0 0 Z " fill="#696973" transform="translate(416.125,319.9375)"/>
<path d="M0 0 C6.30404992 0.9850078 12.12082003 3.61158314 18 6 C14.53001852 7.15666049 13.5783755 6.78653952 10.1875 5.6875 C9.30707031 5.40648437 8.42664063 5.12546875 7.51953125 4.8359375 C6.68808594 4.56007812 5.85664063 4.28421875 5 4 C3.80375 3.608125 2.6075 3.21625 1.375 2.8125 C0.59125 2.544375 -0.1925 2.27625 -1 2 C-0.67 1.34 -0.34 0.68 0 0 Z " fill="#4A4A54" transform="translate(301,234)"/>
<path d="M0 0 C-0.639375 0.309375 -1.27875 0.61875 -1.9375 0.9375 C-3.93610821 1.8345163 -3.93610821 1.8345163 -5 3 C-6.64230364 3.1245486 -8.29052276 3.17568524 -9.9375 3.1875 C-10.83339844 3.20167969 -11.72929687 3.21585937 -12.65234375 3.23046875 C-15 3 -15 3 -17 1 C-13.24713079 -0.2509564 -9.94020864 0 -6 0 C-3 -1 -3 -1 0 0 Z " fill="#40404D" transform="translate(329,367)"/>
<path d="M0 0 C-4.72194167 3.77755334 -9.25928072 3.30096975 -15 3 C-15 2.34 -15 1.68 -15 1 C-13.25215171 0.63536268 -11.50159498 0.2836922 -9.75 -0.0625 C-8.28820312 -0.35833984 -8.28820312 -0.35833984 -6.796875 -0.66015625 C-4.131881 -0.98397535 -2.51128277 -0.85503199 0 0 Z " fill="#3D3D48" transform="translate(256,367)"/>
<path d="M0 0 C-3.64927898 3.64927898 -8.42923408 4.91585183 -13.5 5.1875 C-14.325 5.125625 -15.15 5.06375 -16 5 C-11.6549413 1.5860253 -5.62743967 -2.81371983 0 0 Z " fill="#6B6B73" transform="translate(444,313)"/>
<path d="M0 0 C5.53846154 -0.36923077 5.53846154 -0.36923077 7.875 1.5 C8.24625 1.995 8.6175 2.49 9 3 C8.43410156 3.10957031 7.86820312 3.21914063 7.28515625 3.33203125 C6.18494141 3.56986328 6.18494141 3.56986328 5.0625 3.8125 C4.33160156 3.96332031 3.60070312 4.11414063 2.84765625 4.26953125 C1.93306641 4.63111328 1.93306641 4.63111328 1 5 C0.67 5.99 0.34 6.98 0 8 C0 5.36 0 2.72 0 0 Z " fill="#C5C5C8" transform="translate(265,313)"/>
<path d="M0 0 C0 0.66 0 1.32 0 2 C-1.423125 2.61875 -1.423125 2.61875 -2.875 3.25 C-6.00716624 5.0040131 -6.86500606 5.70851757 -8 9 C-8.66 9 -9.32 9 -10 9 C-10.375 6.75 -10.375 6.75 -10 4 C-6.39423163 0.96787659 -4.77053792 0 0 0 Z " fill="#919198" transform="translate(279,269)"/>
<path d="M0 0 C-1.69636171 2.10407096 -2.54981464 2.93240678 -5.26831055 3.34057617 C-6.13238525 3.32486572 -6.99645996 3.30915527 -7.88671875 3.29296875 C-8.82451172 3.28330078 -9.76230469 3.27363281 -10.72851562 3.26367188 C-11.70498047 3.23853516 -12.68144531 3.21339844 -13.6875 3.1875 C-14.67556641 3.17396484 -15.66363281 3.16042969 -16.68164062 3.14648438 C-19.12164231 3.11112203 -21.56054719 3.06177033 -24 3 C-24 2.67 -24 2.34 -24 2 C-22.19402344 1.90912109 -22.19402344 1.90912109 -20.3515625 1.81640625 C-18.77602923 1.73200268 -17.20050904 1.64735459 -15.625 1.5625 C-14.8309375 1.52318359 -14.036875 1.48386719 -13.21875 1.44335938 C-8.56328054 1.18691402 -4.62241331 -0.12164246 0 0 Z " fill="#696972" transform="translate(390,360)"/>
<path d="M0 0 C3.26954202 0.56371414 4.82575883 1.49962266 7 4 C7.66 3.34 8.32 2.68 9 2 C9.96070434 4.88211302 10.10581883 6.69850044 10.0625 9.6875 C10.05347656 10.49574219 10.04445313 11.30398438 10.03515625 12.13671875 C10.02355469 12.75160156 10.01195312 13.36648438 10 14 C9.70867187 13.401875 9.41734375 12.80375 9.1171875 12.1875 C6.72643336 7.50630308 3.84933555 3.57438301 0 0 Z " fill="#5D5D68" transform="translate(322,247)"/>
<path d="M0 0 C0.99 0.33 1.98 0.66 3 1 C2.71812064 2.79323253 2.4241719 4.58457126 2.125 6.375 C1.96257812 7.37273437 1.80015625 8.37046875 1.6328125 9.3984375 C1 12 1 12 -1 14 C-1.08333357 9.1666528 -0.95261487 4.76307437 0 0 Z " fill="#72727B" transform="translate(267,336)"/>
<path d="M0 0 C0 3 0 3 -2.40625 5.69921875 C-3.4299968 6.70302243 -4.4616054 7.69885649 -5.5 8.6875 C-6.02464844 9.19861328 -6.54929687 9.70972656 -7.08984375 10.23632812 C-8.38660904 11.49772708 -9.69246117 12.74977212 -11 14 C-11.66 13.67 -12.32 13.34 -13 13 C-9.57338216 8.28840047 -5.40481284 4.74963472 -1 1 C-0.67 0.67 -0.34 0.34 0 0 Z " fill="#42424C" transform="translate(455,306)"/>
<path d="M0 0 C0.33 0 0.66 0 1 0 C0.73876187 7.18404854 -1.70211724 11.32206314 -6 17 C-6.33 16.34 -6.66 15.68 -7 15 C-6.06553465 12.96855359 -5.06775224 10.96466413 -4 9 C-3.34 9 -2.68 9 -2 9 C-1.855625 7.700625 -1.71125 6.40125 -1.5625 5.0625 C-1.125 1.125 -1.125 1.125 0 0 Z " fill="#53535D" transform="translate(461,287)"/>
<path d="M0 0 C7.20185801 -0.23441852 13.43391962 -0.28304019 20 3 C20 3.66 20 4.32 20 5 C17.43095885 4.55959295 15.19092176 4.08727852 12.8125 3 C8.64026289 1.51653792 4.39569398 1.32434247 0 1 C0 0.67 0 0.34 0 0 Z " fill="#51515A" transform="translate(418,236)"/>
<path d="M0 0 C1.32 0.33 2.64 0.66 4 1 C3.34 1.66 2.68 2.32 2 3 C1.82798715 5.54229159 1.76742383 7.96149996 1.8125 10.5 C1.81314453 11.18964844 1.81378906 11.87929688 1.81445312 12.58984375 C1.79634391 16.42235194 1.79634391 16.42235194 3 20 C2.01 20 1.02 20 0 20 C0 13.4 0 6.8 0 0 Z " fill="#BABABE" transform="translate(265,268)"/>
<path d="M0 0 C2.64 0 5.28 0 8 0 C6.37660195 1.70884005 4.70680947 3.37446717 3 5 C2.34 5 1.68 5 1 5 C0.67 5.66 0.34 6.32 0 7 C0 4.69 0 2.38 0 0 Z " fill="#AAAAB0" transform="translate(396,317)"/>
<path d="M0 0 C2.85278483 0.29511567 3.83578823 0.81232941 5.75 3 C7.4428059 7.06273416 7.25533894 10.65923807 7 15 C6.67 15 6.34 15 6 15 C5.73445313 14.08476562 5.46890625 13.16953125 5.1953125 12.2265625 C4.84210938 11.03804688 4.48890625 9.84953125 4.125 8.625 C3.77695312 7.44164062 3.42890625 6.25828125 3.0703125 5.0390625 C2.22312581 1.93508442 2.22312581 1.93508442 0 0 Z " fill="#52525B" transform="translate(448,245)"/>
<path d="M0 0 C2.49505962 2.49505962 2.35948376 3.67328888 2.625 7.125 C2.69976562 8.03507812 2.77453125 8.94515625 2.8515625 9.8828125 C2.90054687 10.58148438 2.94953125 11.28015625 3 12 C-1.23830976 9.17446016 -0.97715348 6.87819112 -2 2 C-1.34 2 -0.68 2 0 2 C0 1.34 0 0.68 0 0 Z " fill="#8B8B93" transform="translate(330,327)"/>
<path d="M0 0 C-0.79664063 0.45439453 -0.79664063 0.45439453 -1.609375 0.91796875 C-5.93329703 3.48233857 -9.1035653 5.77603273 -12 10 C-11.92782042 6.89627797 -11.71888568 4.74915455 -9.515625 2.453125 C-4.28751014 -1.52381707 -4.28751014 -1.52381707 0 0 Z " fill="#97979D" transform="translate(408,318)"/>
<path d="M0 0 C2.62451617 2.62451617 2.5832868 4.4877828 3.125 8.125 C3.29257812 9.22070312 3.46015625 10.31640625 3.6328125 11.4453125 C3.75398438 12.28835938 3.87515625 13.13140625 4 14 C0.10940919 10.72210066 0.10940919 10.72210066 -0.390625 7.421875 C-0.34421875 6.54015625 -0.2978125 5.6584375 -0.25 4.75 C-0.21390625 3.85796875 -0.1778125 2.9659375 -0.140625 2.046875 C-0.09421875 1.37140625 -0.0478125 0.6959375 0 0 Z " fill="#8F8F96" transform="translate(318,305)"/>
<path d="M0 0 C1.43088528 2.86177057 0.59991697 4.93375773 0 8 C-1.98 6.68 -3.96 5.36 -6 4 C-4.03617993 2.49440461 -2.21736634 1.10868317 0 0 Z " fill="#B7B7BC" transform="translate(316,304)"/>
<path d="M0 0 C0.88336837 2.4667645 1.1312406 3.63859372 0.22265625 6.140625 C-0.16019531 6.83671875 -0.54304688 7.5328125 -0.9375 8.25 C-1.31777344 8.95640625 -1.69804687 9.6628125 -2.08984375 10.390625 C-2.39019531 10.92171875 -2.69054687 11.4528125 -3 12 C-3.66 11.67 -4.32 11.34 -5 11 C-4.46884894 6.48521602 -2.63379708 3.65333143 0 0 Z " fill="#53535E" transform="translate(355,242)"/>
<path d="M0 0 C-5.71735105 2.45029331 -9.79029227 3.33266291 -16 3 C-16 2.67 -16 2.34 -16 2 C-14.02 2 -12.04 2 -10 2 C-10 1.34 -10 0.68 -10 0 C-6.26432828 -0.76411467 -3.65188082 -1.07174763 0 0 Z " fill="#606069" transform="translate(432,319)"/>
<path d="M0 0 C0 3 0 3 -2.1875 5.6875 C-5 8 -5 8 -7.8125 8.3125 C-8.534375 8.209375 -9.25625 8.10625 -10 8 C-6.66666667 5.33333333 -3.33333333 2.66666667 0 0 Z " fill="#808088" transform="translate(447,305)"/>
<path d="M0 0 C0 0.66 0 1.32 0 2 C0.99 2.33 1.98 2.66 3 3 C-0.38274266 4.12758089 -1.76778223 3.81750262 -5.1875 3.0625 C-6.08855469 2.86785156 -6.98960937 2.67320312 -7.91796875 2.47265625 C-8.60503906 2.31667969 -9.29210937 2.16070312 -10 2 C-6.48375245 0.05841983 -4.0284349 -0.18311068 0 0 Z " fill="#61616B" transform="translate(320,242)"/>
<path d="M0 0 C1.98 0.99 1.98 0.99 4 2 C4 3.98 4 5.96 4 8 C3.34 8 2.68 8 2 8 C0.74335022 5.09399739 0 3.20395416 0 0 Z " fill="#5B5B66" transform="translate(289,350)"/>
<path d="M0 0 C0.33 0.99 0.66 1.98 1 3 C-1.25 5.5 -1.25 5.5 -4 8 C-5.32 8 -6.64 8 -8 8 C-8 7.34 -8 6.68 -8 6 C-7.05125 5.7525 -6.1025 5.505 -5.125 5.25 C-1.91306809 4.3142923 -1.91306809 4.3142923 -0.625 1.875 C-0.41875 1.25625 -0.2125 0.6375 0 0 Z " fill="#97979D" transform="translate(413,281)"/>
<path d="M0 0 C0.598125 0.226875 1.19625 0.45375 1.8125 0.6875 C1.02875 1.450625 0.245 2.21375 -0.5625 3 C-3.26007717 5.59641805 -3.26007717 5.59641805 -5.1875 8.6875 C-5.55003776 3.24943353 -5.55003776 3.24943353 -3.9375 0.75 C-2.1875 -0.3125 -2.1875 -0.3125 0 0 Z " fill="#A7A7AC" transform="translate(271.1875,268.3125)"/>
<path d="M0 0 C2 2 2 2 2.3125 5.4375 C2 9 2 9 -1 12 C-0.67 8.04 -0.34 4.08 0 0 Z " fill="#C2C2C6" transform="translate(292,272)"/>
<path d="M0 0 C0.33 0 0.66 0 1 0 C1 3.63 1 7.26 1 11 C-2.375 6.5 -2.375 6.5 -3 3 C-2.34 3 -1.68 3 -1 3 C-0.67 2.01 -0.34 1.02 0 0 Z " fill="#7B7B82" transform="translate(456,257)"/>
<path d="M0 0 C0.33 0 0.66 0 1 0 C1.061875 0.94875 1.12375 1.8975 1.1875 2.875 C1.455625 3.90625 1.72375 4.9375 2 6 C4.46255685 7.45291273 4.46255685 7.45291273 7 8 C7 8.33 7 8.66 7 9 C4.69 9 2.38 9 0 9 C0 6.03 0 3.06 0 0 Z " fill="#9C9CA2" transform="translate(269,278)"/>
<path d="M0 0 C0 3 0 3 -1.75 5.25 C-2.86375 6.11625 -2.86375 6.11625 -4 7 C-5.32 6.67 -6.64 6.34 -8 6 C-5.36 4.02 -2.72 2.04 0 0 Z " fill="#96969D" transform="translate(287,280)"/>
<path d="M0 0 C0 3 0 3 -2 6 C-2.33 6.99 -2.66 7.98 -3 9 C-3.33 9 -3.66 9 -4 9 C-3.6875 5.625 -3.6875 5.625 -3 2 C-2.01 1.34 -1.02 0.68 0 0 Z " fill="#62626D" transform="translate(337,282)"/>
</svg>
